<?xml version="1.0" standalone="no"?>
<!DOCTYPE svg PUBLIC "-//W3C//DTD SVG 1.1//EN" "http://www.w3.org/Graphics/SVG/1.1/DTD/svg11.dtd" >
<svg xmlns="http://www.w3.org/2000/svg" width="100%" height="100%">
<metadata>
Created by FontXChange 20110222 at Wed Aug 21 11:29:30 2013
 By Henry Ho
 The digitally encoded machine readable software for producing the Typefaces licensed to you is copyrighted (c) 1989 Adobe Systems. All Rights Reserved. This software is the property of Adobe Systems Incorporated and its licensors, and may not be reproduced, used,  displayed, modified, disclosed or transferred without the express  written approval of Adobe.  The digitally encoded machine readable outline data for producing the Typefaces licensed to you is copyrighted (c) 1981 Linotype AG and/or its subsidiaries. All Rights Reserved. This data is the property of Linotype AG and/or its subsidiaries and may not be reproduced, used, displayed, modified, disclosed or  transferred without the express written approval of Linotype AG  and/or its subsidiaries. 
</metadata>
<defs>
<font id="VAGRounded-Light" horiz-adv-x="204" >
  <font-face 
    font-family="VAGRounded"
    font-weight="200"
    font-stretch="normal"
    units-per-em="1000"
    panose-1="2 0 3 3 0 0 0 0 0 0"
    ascent="800"
    descent="-200"
    x-height="532"
    cap-height="718"
    bbox="-119 -216.013 1047 922"
    underline-thickness="50"
    underline-position="-100"
    unicode-range="U+0020-FB02"
  />
    <missing-glyph />
    <glyph glyph-name="A" unicode="A" horiz-adv-x="612" 
d="M141 557l-46 128c-7 19 -19 33 -43 33c-23 0 -42 -14 -42 -37c0 -12 9 -35 12 -44l221 -589c11 -31 29 -54 63 -54s52 23 63 54l221 589c3 9 12 32 12 44c0 23 -19 37 -42 37c-24 0 -36 -14 -43 -33l-46 -128h-330zM444 481l-137 -385h-2l-137 385h276z" />
    <glyph glyph-name="AE" unicode="&#xc6;" horiz-adv-x="759" 
d="M461 315v-233h212c25 0 43 -13 43 -41s-18 -41 -43 -41h-253c-33 0 -47 21 -47 48v107h-231l-68 -133c-11 -23 -25 -28 -42 -28c-24 0 -41 15 -41 32c0 11 2 19 13 41l311 607c18 35 29 38 61 38h287c25 0 43 -13 43 -41s-18 -41 -43 -41h-202v-233h193
c25 0 43 -13 43 -41s-18 -41 -43 -41h-193zM373 231v379h-2l-191 -379h193z" />
    <glyph glyph-name="Aacute" unicode="&#xc1;" horiz-adv-x="612" 
d="M141 155l-46 -128c-7 -19 -19 -33 -43 -33c-23 0 -42 14 -42 37c0 12 9 35 12 44l221 589c11 31 29 54 63 54s52 -23 63 -54l221 -589c3 -9 12 -32 12 -44c0 -23 -19 -37 -42 -37c-24 0 -36 14 -43 33l-46 128h-330zM444 231l-137 385h-2l-137 -385h276zM382 823
l-115 -47c-17 -7 -25 -9 -34 -9c-26 0 -38 27 -38 42c0 12 7 26 35 37l115 47c17 7 25 9 34 9c26 0 38 -27 38 -42c0 -12 -7 -26 -35 -37z" />
    <glyph glyph-name="Acircumflex" unicode="&#xc2;" horiz-adv-x="612" 
d="M141 155l-46 -128c-7 -19 -19 -33 -43 -33c-23 0 -42 14 -42 37c0 12 9 35 12 44l221 589c11 31 29 54 63 54s52 -23 63 -54l221 -589c3 -9 12 -32 12 -44c0 -23 -19 -37 -42 -37c-24 0 -36 14 -43 33l-46 128h-330zM444 231l-137 385h-2l-137 -385h276zM177 840l129 55
l129 -55c16 -7 23 -19 23 -35c0 -21 -14 -38 -36 -38c-5 0 -13 1 -22 5l-94 37l-94 -37c-9 -4 -17 -5 -22 -5c-22 0 -36 17 -36 38c0 16 7 28 23 35z" />
    <glyph glyph-name="Adieresis" unicode="&#xc4;" horiz-adv-x="612" 
d="M141 155l-46 -128c-7 -19 -19 -33 -43 -33c-23 0 -42 14 -42 37c0 12 9 35 12 44l221 589c11 31 29 54 63 54s52 -23 63 -54l221 -589c3 -9 12 -32 12 -44c0 -23 -19 -37 -42 -37c-24 0 -36 14 -43 33l-46 128h-330zM444 231l-137 385h-2l-137 -385h276zM159 818
c0 30 24 54 54 54s54 -24 54 -54s-24 -54 -54 -54s-54 24 -54 54zM345 818c0 30 24 54 54 54s54 -24 54 -54s-24 -54 -54 -54s-54 24 -54 54z" />
    <glyph glyph-name="Agrave" unicode="&#xc0;" horiz-adv-x="612" 
d="M141 155l-46 -128c-7 -19 -19 -33 -43 -33c-23 0 -42 14 -42 37c0 12 9 35 12 44l221 589c11 31 29 54 63 54s52 -23 63 -54l221 -589c3 -9 12 -32 12 -44c0 -23 -19 -37 -42 -37c-24 0 -36 14 -43 33l-46 128h-330zM444 231l-137 385h-2l-137 -385h276zM345 776l-115 47
c-28 11 -35 25 -35 37c0 15 12 42 38 42c9 0 17 -2 34 -9l115 -47c28 -11 35 -25 35 -37c0 -15 -12 -42 -38 -42c-9 0 -17 2 -34 9z" />
    <glyph glyph-name="Aring" unicode="&#xc5;" horiz-adv-x="612" 
d="M141 155l-46 -128c-7 -19 -19 -33 -43 -33c-23 0 -42 14 -42 37c0 12 9 35 12 44l221 589c11 31 29 54 63 54s52 -23 63 -54l221 -589c3 -9 12 -32 12 -44c0 -23 -19 -37 -42 -37c-24 0 -36 14 -43 33l-46 128h-330zM444 231l-137 385h-2l-137 -385h276zM212 828
c0 52 42 94 94 94s94 -42 94 -94s-42 -94 -94 -94s-94 42 -94 94zM260 828c0 -25 21 -46 46 -46s46 21 46 46s-21 46 -46 46s-46 -21 -46 -46z" />
    <glyph glyph-name="Atilde" unicode="&#xc3;" horiz-adv-x="612" 
d="M141 155l-46 -128c-7 -19 -19 -33 -43 -33c-23 0 -42 14 -42 37c0 12 9 35 12 44l221 589c11 31 29 54 63 54s52 -23 63 -54l221 -589c3 -9 12 -32 12 -44c0 -23 -19 -37 -42 -37c-24 0 -36 14 -43 33l-46 128h-330zM444 231l-137 385h-2l-137 -385h276zM157 815
c0 31 37 63 93 63c46 0 71 -20 110 -20c28 0 39 20 62 20c15 0 33 -18 33 -39c0 -31 -37 -63 -93 -63c-46 0 -71 20 -110 20c-28 0 -39 -20 -62 -20c-15 0 -33 18 -33 39z" />
    <glyph glyph-name="B" unicode="B" horiz-adv-x="537" 
d="M146 636v-225h100c75 0 118 50 118 115c0 64 -37 110 -115 110h-103zM146 339v-263h124c86 0 149 53 149 132c0 73 -53 131 -145 131h-128zM58 48v616c0 27 14 48 47 48h155c126 0 192 -89 192 -170c0 -78 -41 -138 -99 -156v-2c86 -9 154 -82 154 -176
c0 -112 -83 -208 -233 -208h-169c-33 0 -47 21 -47 48z" />
    <glyph glyph-name="C" unicode="C" horiz-adv-x="593" 
d="M125 356c0 -136 67 -286 218 -286c107 0 154 64 191 64c21 0 35 -16 35 -41c0 -45 -101 -99 -226 -99c-206 0 -312 177 -312 362s106 362 317 362c126 0 206 -68 206 -104c0 -23 -14 -42 -36 -42c-40 0 -60 70 -170 70c-158 0 -223 -150 -223 -286z" />
    <glyph glyph-name="Ccedilla" unicode="&#xc7;" horiz-adv-x="593" 
d="M125 356c0 -136 67 -286 218 -286c107 0 154 64 191 64c21 0 35 -16 35 -41c0 -45 -101 -99 -226 -99c-206 0 -312 177 -312 362s106 362 317 362c126 0 206 -68 206 -104c0 -23 -14 -42 -36 -42c-40 0 -60 70 -170 70c-158 0 -223 -150 -223 -286zM363 0l-29 -42
c5 1 11 3 21 3c44 0 69 -32 69 -55c0 -61 -47 -86 -111 -86c-42 0 -73 14 -73 35c0 13 7 27 21 27c13 0 34 -8 52 -8c24 0 35 7 35 27c0 18 -15 18 -44 18c-25 0 -30 14 -30 19c0 7 4 16 10 25l26 37h53z" />
    <glyph glyph-name="D" unicode="D" horiz-adv-x="630" 
d="M63 48v616c0 27 14 48 47 48h173c212 0 316 -164 316 -352c0 -213 -113 -360 -304 -360h-185c-33 0 -47 21 -47 48zM151 636v-560h126c166 0 228 139 228 284c0 146 -66 276 -234 276h-120z" />
    <glyph glyph-name="E" unicode="E" horiz-adv-x="444" 
d="M146 315v-233h212c25 0 43 -13 43 -41s-18 -41 -43 -41h-253c-33 0 -47 21 -47 48v616c0 27 14 48 47 48h253c25 0 43 -13 43 -41s-18 -41 -43 -41h-212v-233h193c25 0 43 -13 43 -41s-18 -41 -43 -41h-193z" />
    <glyph glyph-name="Eacute" unicode="&#xc9;" horiz-adv-x="444" 
d="M146 315v-233h212c25 0 43 -13 43 -41s-18 -41 -43 -41h-253c-33 0 -47 21 -47 48v616c0 27 14 48 47 48h253c25 0 43 -13 43 -41s-18 -41 -43 -41h-212v-233h193c25 0 43 -13 43 -41s-18 -41 -43 -41h-193zM298 823l-115 -47c-17 -7 -25 -9 -34 -9c-26 0 -38 27 -38 42
c0 12 7 26 35 37l115 47c17 7 25 9 34 9c26 0 38 -27 38 -42c0 -12 -7 -26 -35 -37z" />
    <glyph glyph-name="Ecircumflex" unicode="&#xca;" horiz-adv-x="444" 
d="M146 315v-233h212c25 0 43 -13 43 -41s-18 -41 -43 -41h-253c-33 0 -47 21 -47 48v616c0 27 14 48 47 48h253c25 0 43 -13 43 -41s-18 -41 -43 -41h-212v-233h193c25 0 43 -13 43 -41s-18 -41 -43 -41h-193zM93 840l129 55l129 -55c16 -7 23 -19 23 -35
c0 -21 -14 -38 -36 -38c-5 0 -13 1 -22 5l-94 37l-94 -37c-9 -4 -17 -5 -22 -5c-22 0 -36 17 -36 38c0 16 7 28 23 35z" />
    <glyph glyph-name="Edieresis" unicode="&#xcb;" horiz-adv-x="444" 
d="M146 315v-233h212c25 0 43 -13 43 -41s-18 -41 -43 -41h-253c-33 0 -47 21 -47 48v616c0 27 14 48 47 48h253c25 0 43 -13 43 -41s-18 -41 -43 -41h-212v-233h193c25 0 43 -13 43 -41s-18 -41 -43 -41h-193zM75 818c0 30 24 54 54 54s54 -24 54 -54s-24 -54 -54 -54
s-54 24 -54 54zM261 818c0 30 24 54 54 54s54 -24 54 -54s-24 -54 -54 -54s-54 24 -54 54z" />
    <glyph glyph-name="Egrave" unicode="&#xc8;" horiz-adv-x="444" 
d="M146 315v-233h212c25 0 43 -13 43 -41s-18 -41 -43 -41h-253c-33 0 -47 21 -47 48v616c0 27 14 48 47 48h253c25 0 43 -13 43 -41s-18 -41 -43 -41h-212v-233h193c25 0 43 -13 43 -41s-18 -41 -43 -41h-193zM261 776l-115 47c-28 11 -35 25 -35 37c0 15 12 42 38 42
c9 0 17 -2 34 -9l115 -47c28 -11 35 -25 35 -37c0 -15 -12 -42 -38 -42c-9 0 -17 2 -34 9z" />
    <glyph glyph-name="Eth" unicode="&#xd0;" horiz-adv-x="630" 
d="M63 48v273h-38c-25 0 -43 13 -43 38s18 38 43 38h38v267c0 27 14 48 47 48h173c212 0 316 -164 316 -352c0 -213 -113 -360 -304 -360h-185c-33 0 -47 21 -47 48zM151 321v-245h126c166 0 228 139 228 284c0 146 -66 276 -234 276h-120v-239h120c25 0 43 -13 43 -38
s-18 -38 -43 -38h-120z" />
    <glyph glyph-name="F" unicode="F" horiz-adv-x="407" 
d="M146 315v-274c0 -29 -17 -47 -44 -47s-44 18 -44 47v623c0 27 14 48 47 48h250c25 0 43 -13 43 -41s-18 -41 -43 -41h-209v-233h185c25 0 43 -13 43 -41s-18 -41 -43 -41h-185z" />
    <glyph glyph-name="G" unicode="G" horiz-adv-x="667" 
d="M559 326h-124c-25 0 -43 13 -43 41s18 41 43 41h148c45 0 64 -17 64 -72c0 -172 -62 -342 -304 -342c-205 0 -312 177 -312 362s102 362 325 362c146 0 244 -76 244 -114c0 -23 -17 -42 -42 -42c-44 0 -80 80 -208 80c-160 0 -225 -150 -225 -286s63 -286 229 -286
c138 0 205 118 205 214v42z" />
    <glyph glyph-name="H" unicode="H" horiz-adv-x="667" 
d="M146 319v-272c0 -35 -17 -53 -44 -53s-44 18 -44 53v618c0 35 17 53 44 53s44 -18 44 -53v-270h375v270c0 35 17 53 44 53s44 -18 44 -53v-618c0 -35 -17 -53 -44 -53s-44 18 -44 53v272h-375z" />
    <glyph glyph-name="I" unicode="I" 
d="M146 671v-630c0 -29 -17 -47 -44 -47s-44 18 -44 47v630c0 29 17 47 44 47s44 -18 44 -47z" />
    <glyph glyph-name="Iacute" unicode="&#xcd;" 
d="M146 671v-630c0 -29 -17 -47 -44 -47s-44 18 -44 47v630c0 29 17 47 44 47s44 -18 44 -47zM178 823l-115 -47c-17 -7 -25 -9 -34 -9c-26 0 -38 27 -38 42c0 12 7 26 35 37l115 47c17 7 25 9 34 9c26 0 38 -27 38 -42c0 -12 -7 -26 -35 -37z" />
    <glyph glyph-name="Icircumflex" unicode="&#xce;" 
d="M146 671v-630c0 -29 -17 -47 -44 -47s-44 18 -44 47v630c0 29 17 47 44 47s44 -18 44 -47zM-27 840l129 55l129 -55c16 -7 23 -19 23 -35c0 -21 -14 -38 -36 -38c-5 0 -13 1 -22 5l-94 37l-94 -37c-9 -4 -17 -5 -22 -5c-22 0 -36 17 -36 38c0 16 7 28 23 35z" />
    <glyph glyph-name="Idieresis" unicode="&#xcf;" 
d="M146 671v-630c0 -29 -17 -47 -44 -47s-44 18 -44 47v630c0 29 17 47 44 47s44 -18 44 -47zM-45 818c0 30 24 54 54 54s54 -24 54 -54s-24 -54 -54 -54s-54 24 -54 54zM141 818c0 30 24 54 54 54s54 -24 54 -54s-24 -54 -54 -54s-54 24 -54 54z" />
    <glyph glyph-name="Igrave" unicode="&#xcc;" 
d="M146 671v-630c0 -29 -17 -47 -44 -47s-44 18 -44 47v630c0 29 17 47 44 47s44 -18 44 -47zM141 776l-115 47c-28 11 -35 25 -35 37c0 15 12 42 38 42c9 0 17 -2 34 -9l115 -47c28 -11 35 -25 35 -37c0 -15 -12 -42 -38 -42c-9 0 -17 2 -34 9z" />
    <glyph glyph-name="J" unicode="J" horiz-adv-x="370" 
d="M224 172v499c0 29 17 47 44 47s44 -18 44 -47v-490c0 -113 -48 -187 -173 -187c-47 0 -146 28 -146 80c0 22 14 37 35 37c40 0 42 -41 118 -41c61 0 78 46 78 102z" />
    <glyph glyph-name="K" unicode="K" horiz-adv-x="574" 
d="M146 373v298c0 29 -17 47 -44 47s-44 -18 -44 -47v-630c0 -29 17 -47 44 -47s44 18 44 47v260l305 -279c16 -15 30 -28 48 -28c22 0 38 15 38 38s-8 31 -18 40l-292 263l319 308c14 13 18 23 18 36c0 21 -19 39 -43 39c-13 0 -25 -2 -43 -19z" />
    <glyph glyph-name="L" unicode="L" horiz-adv-x="389" 
d="M146 671v-589h188c25 0 43 -13 43 -41s-18 -41 -43 -41h-229c-33 0 -47 21 -47 48v623c0 29 17 47 44 47s44 -18 44 -47z" />
    <glyph glyph-name="Lslash" unicode="&#x141;" horiz-adv-x="389" 
d="M146 337v-255h188c25 0 43 -13 43 -41s-18 -41 -43 -41h-229c-33 0 -47 21 -47 48v238l-13 -8c-11 -6 -22 -11 -37 -11c-22 0 -35 20 -35 40c0 14 7 26 24 35l61 36v293c0 29 17 47 44 47s44 -18 44 -47v-242l67 38c13 7 23 12 37 12c21 0 37 -15 37 -38
c0 -18 -9 -28 -24 -37z" />
    <glyph glyph-name="M" unicode="M" horiz-adv-x="834" 
d="M200 604l-83 -572c-4 -31 -24 -38 -47 -38c-27 0 -41 18 -41 45c0 10 2 23 5 40l97 572c9 50 37 67 69 67c35 0 54 -13 64 -46l152 -521h2l152 521c10 33 29 46 64 46c32 0 60 -17 69 -67l97 -572c3 -17 5 -30 5 -40c0 -27 -14 -45 -41 -45c-23 0 -43 7 -47 38l-83 572
h-2l-170 -574c-9 -29 -25 -36 -45 -36s-36 7 -45 36l-170 574h-2z" />
    <glyph glyph-name="N" unicode="N" horiz-adv-x="668" 
d="M146 155v516c0 29 -17 47 -44 47s-44 -18 -44 -47v-625c0 -35 12 -52 40 -52c26 0 38 11 62 46l360 517h2v-516c0 -29 17 -47 44 -47s44 18 44 47v625c0 35 -12 52 -40 52c-26 0 -38 -11 -62 -46l-360 -517h-2z" />
    <glyph glyph-name="Ntilde" unicode="&#xd1;" horiz-adv-x="668" 
d="M146 557v-516c0 -29 -17 -47 -44 -47s-44 18 -44 47v625c0 35 12 52 40 52c26 0 38 -11 62 -46l360 -517h2v516c0 29 17 47 44 47s44 -18 44 -47v-625c0 -35 -12 -52 -40 -52c-26 0 -38 11 -62 46l-360 517h-2zM185 815c0 31 37 63 93 63c46 0 71 -20 110 -20
c28 0 39 20 62 20c15 0 33 -18 33 -39c0 -31 -37 -63 -93 -63c-46 0 -71 20 -110 20c-28 0 -39 -20 -62 -20c-15 0 -33 18 -33 39z" />
    <glyph glyph-name="O" unicode="O" horiz-adv-x="686" 
d="M125 356c0 -136 58 -286 218 -286s218 150 218 286s-58 286 -218 286s-218 -150 -218 -286zM31 356c0 185 109 362 312 362s312 -177 312 -362s-109 -362 -312 -362s-312 177 -312 362z" />
    <glyph glyph-name="OE" unicode="&#x152;" horiz-adv-x="926" 
d="M125 356c0 -136 58 -286 218 -286s218 150 218 286s-58 286 -218 286s-218 -150 -218 -286zM554 48v56h-2c-44 -63 -123 -110 -209 -110c-203 0 -312 177 -312 362s109 362 312 362c89 0 159 -42 211 -100v46c0 27 14 48 47 48h241c25 0 43 -13 43 -41s-18 -41 -43 -41
h-200v-233h193c25 0 43 -13 43 -41s-18 -41 -43 -41h-193v-233h210c25 0 43 -13 43 -41s-18 -41 -43 -41h-251c-33 0 -47 21 -47 48z" />
    <glyph glyph-name="Oacute" unicode="&#xd3;" horiz-adv-x="686" 
d="M125 356c0 -136 58 -286 218 -286s218 150 218 286s-58 286 -218 286s-218 -150 -218 -286zM31 356c0 185 109 362 312 362s312 -177 312 -362s-109 -362 -312 -362s-312 177 -312 362zM419 823l-115 -47c-17 -7 -25 -9 -34 -9c-26 0 -38 27 -38 42c0 12 7 26 35 37
l115 47c17 7 25 9 34 9c26 0 38 -27 38 -42c0 -12 -7 -26 -35 -37z" />
    <glyph glyph-name="Ocircumflex" unicode="&#xd4;" horiz-adv-x="686" 
d="M125 356c0 -136 58 -286 218 -286s218 150 218 286s-58 286 -218 286s-218 -150 -218 -286zM31 356c0 185 109 362 312 362s312 -177 312 -362s-109 -362 -312 -362s-312 177 -312 362zM214 840l129 55l129 -55c16 -7 23 -19 23 -35c0 -21 -14 -38 -36 -38
c-5 0 -13 1 -22 5l-94 37l-94 -37c-9 -4 -17 -5 -22 -5c-22 0 -36 17 -36 38c0 16 7 28 23 35z" />
    <glyph glyph-name="Odieresis" unicode="&#xd6;" horiz-adv-x="686" 
d="M125 356c0 -136 58 -286 218 -286s218 150 218 286s-58 286 -218 286s-218 -150 -218 -286zM31 356c0 185 109 362 312 362s312 -177 312 -362s-109 -362 -312 -362s-312 177 -312 362zM196 818c0 30 24 54 54 54s54 -24 54 -54s-24 -54 -54 -54s-54 24 -54 54zM382 818
c0 30 24 54 54 54s54 -24 54 -54s-24 -54 -54 -54s-54 24 -54 54z" />
    <glyph glyph-name="Ograve" unicode="&#xd2;" horiz-adv-x="686" 
d="M125 356c0 -136 58 -286 218 -286s218 150 218 286s-58 286 -218 286s-218 -150 -218 -286zM31 356c0 185 109 362 312 362s312 -177 312 -362s-109 -362 -312 -362s-312 177 -312 362zM382 776l-115 47c-28 11 -35 25 -35 37c0 15 12 42 38 42c9 0 17 -2 34 -9l115 -47
c28 -11 35 -25 35 -37c0 -15 -12 -42 -38 -42c-9 0 -17 2 -34 9z" />
    <glyph glyph-name="Oslash" unicode="&#xd8;" horiz-adv-x="686" 
d="M160 190l332 388c-35 39 -83 64 -149 64c-160 0 -218 -150 -218 -286c0 -57 10 -116 35 -166zM527 524l-333 -389c35 -41 83 -65 149 -65c160 0 218 150 218 286c0 58 -10 118 -34 168zM545 639l59 70c10 12 20 17 31 17c15 0 31 -9 31 -28c0 -10 -3 -16 -12 -26l-69 -80
c46 -65 70 -150 70 -236c0 -185 -109 -362 -312 -362c-84 0 -152 31 -202 80l-61 -72c-7 -8 -18 -16 -31 -16c-19 0 -29 15 -29 27c0 8 3 17 14 30l66 77c-46 67 -69 150 -69 236c0 185 109 362 312 362c83 0 151 -30 202 -79z" />
    <glyph glyph-name="Otilde" unicode="&#xd5;" horiz-adv-x="686" 
d="M125 356c0 -136 58 -286 218 -286s218 150 218 286s-58 286 -218 286s-218 -150 -218 -286zM31 356c0 185 109 362 312 362s312 -177 312 -362s-109 -362 -312 -362s-312 177 -312 362zM194 815c0 31 37 63 93 63c46 0 71 -20 110 -20c28 0 39 20 62 20
c15 0 33 -18 33 -39c0 -31 -37 -63 -93 -63c-46 0 -71 20 -110 20c-28 0 -39 -20 -62 -20c-15 0 -33 18 -33 39z" />
    <glyph glyph-name="P" unicode="P" horiz-adv-x="519" 
d="M146 266v-225c0 -29 -17 -47 -44 -47s-44 18 -44 47v623c0 27 14 48 47 48h174c143 0 231 -100 231 -224s-98 -222 -228 -222h-136zM146 636v-294h130c87 0 146 65 146 146c0 70 -40 148 -150 148h-126z" />
    <glyph glyph-name="Q" unicode="Q" horiz-adv-x="685" 
d="M485 127l-59 58c-11 11 -18 20 -18 33c0 22 16 40 39 40c12 0 21 -4 33 -16l49 -48c22 48 32 106 32 162c0 136 -58 286 -218 286s-218 -150 -218 -286s58 -286 218 -286c61 0 107 21 142 57zM612 2l-70 69c-50 -48 -117 -77 -199 -77c-203 0 -312 177 -312 362
s109 362 312 362s312 -177 312 -362c0 -82 -21 -161 -62 -225l74 -73c11 -11 17 -21 17 -35c0 -19 -15 -37 -38 -37c-17 0 -27 9 -34 16z" />
    <glyph glyph-name="R" unicode="R" horiz-adv-x="519" 
d="M146 312v-271c0 -29 -17 -47 -44 -47s-44 18 -44 47v623c0 27 14 48 47 48h163c112 0 218 -76 218 -192c0 -144 -88 -198 -194 -202l-38 -1l227 -249c12 -13 17 -24 17 -40c0 -19 -18 -34 -40 -34c-18 0 -30 9 -40 20zM146 636v-253h120c92 0 132 39 132 131
c0 66 -52 122 -134 122h-118z" />
    <glyph glyph-name="S" unicode="S" horiz-adv-x="481" 
d="M238 718c88 0 175 -37 175 -83c0 -21 -16 -39 -38 -39c-39 0 -52 46 -140 46c-65 0 -113 -41 -113 -101c0 -157 338 -82 338 -322c0 -118 -86 -225 -241 -225c-94 0 -198 36 -198 86c0 24 12 45 37 45c30 0 72 -55 162 -55c91 0 146 66 146 145c0 169 -338 87 -338 320
c0 83 78 183 210 183z" />
    <glyph glyph-name="Scaron" unicode="&#x160;" horiz-adv-x="481" 
d="M238 718c88 0 175 -37 175 -83c0 -21 -16 -39 -38 -39c-39 0 -52 46 -140 46c-65 0 -113 -41 -113 -101c0 -157 338 -82 338 -322c0 -118 -86 -225 -241 -225c-94 0 -198 36 -198 86c0 24 12 45 37 45c30 0 72 -55 162 -55c91 0 146 66 146 145c0 169 -338 87 -338 320
c0 83 78 183 210 183zM241 767l-129 55c-16 7 -23 19 -23 35c0 21 14 38 36 38c5 0 13 -1 22 -5l94 -37l94 37c9 4 17 5 22 5c22 0 36 -17 36 -38c0 -16 -7 -28 -23 -35z" />
    <glyph glyph-name="T" unicode="T" horiz-adv-x="444" 
d="M178 41v589h-133c-25 0 -43 13 -43 41s18 41 43 41h354c25 0 43 -13 43 -41s-18 -41 -43 -41h-133v-589c0 -29 -17 -47 -44 -47s-44 18 -44 47z" />
    <glyph glyph-name="Thorn" unicode="&#xde;" horiz-adv-x="519" 
d="M146 524v-292h130c87 0 146 64 146 145c0 68 -40 147 -150 147h-126zM146 156v-115c0 -29 -17 -47 -44 -47s-44 18 -44 47v630c0 29 17 47 44 47s44 -18 44 -47v-71h133c143 0 231 -101 231 -223c0 -123 -98 -221 -228 -221h-136z" />
    <glyph glyph-name="U" unicode="U" horiz-adv-x="668" 
d="M58 282v389c0 29 17 47 44 47s44 -18 44 -47v-423c0 -112 76 -178 188 -178s188 66 188 178v423c0 29 17 47 44 47s44 -18 44 -47v-389c0 -240 -154 -288 -276 -288s-276 48 -276 288z" />
    <glyph glyph-name="Uacute" unicode="&#xda;" horiz-adv-x="668" 
d="M58 282v389c0 29 17 47 44 47s44 -18 44 -47v-423c0 -112 76 -178 188 -178s188 66 188 178v423c0 29 17 47 44 47s44 -18 44 -47v-389c0 -240 -154 -288 -276 -288s-276 48 -276 288zM410 823l-115 -47c-17 -7 -25 -9 -34 -9c-26 0 -38 27 -38 42c0 12 7 26 35 37
l115 47c17 7 25 9 34 9c26 0 38 -27 38 -42c0 -12 -7 -26 -35 -37z" />
    <glyph glyph-name="Ucircumflex" unicode="&#xdb;" horiz-adv-x="668" 
d="M58 282v389c0 29 17 47 44 47s44 -18 44 -47v-423c0 -112 76 -178 188 -178s188 66 188 178v423c0 29 17 47 44 47s44 -18 44 -47v-389c0 -240 -154 -288 -276 -288s-276 48 -276 288zM205 840l129 55l129 -55c16 -7 23 -19 23 -35c0 -21 -14 -38 -36 -38
c-5 0 -13 1 -22 5l-94 37l-94 -37c-9 -4 -17 -5 -22 -5c-22 0 -36 17 -36 38c0 16 7 28 23 35z" />
    <glyph glyph-name="Udieresis" unicode="&#xdc;" horiz-adv-x="668" 
d="M58 282v389c0 29 17 47 44 47s44 -18 44 -47v-423c0 -112 76 -178 188 -178s188 66 188 178v423c0 29 17 47 44 47s44 -18 44 -47v-389c0 -240 -154 -288 -276 -288s-276 48 -276 288zM187 818c0 30 24 54 54 54s54 -24 54 -54s-24 -54 -54 -54s-54 24 -54 54zM373 818
c0 30 24 54 54 54s54 -24 54 -54s-24 -54 -54 -54s-54 24 -54 54z" />
    <glyph glyph-name="Ugrave" unicode="&#xd9;" horiz-adv-x="668" 
d="M58 282v389c0 29 17 47 44 47s44 -18 44 -47v-423c0 -112 76 -178 188 -178s188 66 188 178v423c0 29 17 47 44 47s44 -18 44 -47v-389c0 -240 -154 -288 -276 -288s-276 48 -276 288zM373 776l-115 47c-28 11 -35 25 -35 37c0 15 12 42 38 42c9 0 17 -2 34 -9l115 -47
c28 -11 35 -25 35 -37c0 -15 -12 -42 -38 -42c-9 0 -17 2 -34 9z" />
    <glyph glyph-name="V" unicode="V" horiz-adv-x="556" 
d="M279 570l180 -519c11 -31 19 -57 54 -57c24 0 39 18 39 36c0 12 -2 22 -6 34l-217 606c-10 29 -21 48 -51 48s-41 -19 -51 -48l-217 -606c-4 -12 -6 -22 -6 -34c0 -18 15 -36 39 -36c35 0 43 26 54 57l180 519h2z" />
    <glyph glyph-name="W" unicode="W" horiz-adv-x="834" 
d="M208 108l164 575c8 27 23 35 45 35s37 -8 45 -35l164 -575h2l93 569c5 29 21 41 48 41c25 0 40 -18 40 -40c0 -11 -1 -24 -5 -45l-108 -581c-6 -31 -19 -58 -63 -58c-34 0 -55 9 -69 58l-146 522h-2l-146 -522c-14 -49 -35 -58 -69 -58c-44 0 -57 27 -63 58l-108 581
c-4 21 -5 34 -5 45c0 22 15 40 40 40c27 0 43 -12 48 -41l93 -569h2z" />
    <glyph glyph-name="X" unicode="X" horiz-adv-x="594" 
d="M297 313l-204 -291c-18 -25 -30 -28 -44 -28c-20 0 -40 16 -40 37c0 14 8 27 14 36l223 315l-186 263c-10 14 -14 26 -14 36c0 22 18 37 39 37c15 0 28 -4 45 -28l167 -244l167 244c17 24 30 28 45 28c21 0 39 -15 39 -37c0 -10 -4 -22 -14 -36l-186 -263l223 -315
c6 -9 14 -22 14 -36c0 -21 -20 -37 -40 -37c-14 0 -26 3 -44 28z" />
    <glyph glyph-name="Y" unicode="Y" horiz-adv-x="500" 
d="M206 41v293l-191 311c-10 16 -14 26 -14 37c0 22 18 36 40 36c16 0 31 -6 44 -28l165 -269l165 269c13 22 28 28 44 28c22 0 40 -14 40 -36c0 -11 -4 -21 -14 -37l-191 -311v-293c0 -29 -17 -47 -44 -47s-44 18 -44 47z" />
    <glyph glyph-name="Yacute" unicode="&#xdd;" horiz-adv-x="500" 
d="M206 41v293l-191 311c-10 16 -14 26 -14 37c0 22 18 36 40 36c16 0 31 -6 44 -28l165 -269l165 269c13 22 28 28 44 28c22 0 40 -14 40 -36c0 -11 -4 -21 -14 -37l-191 -311v-293c0 -29 -17 -47 -44 -47s-44 18 -44 47zM326 823l-115 -47c-17 -7 -25 -9 -34 -9
c-26 0 -38 27 -38 42c0 12 7 26 35 37l115 47c17 7 25 9 34 9c26 0 38 -27 38 -42c0 -12 -7 -26 -35 -37z" />
    <glyph glyph-name="Ydieresis" unicode="&#x178;" horiz-adv-x="500" 
d="M206 41v293l-191 311c-10 16 -14 26 -14 37c0 22 18 36 40 36c16 0 31 -6 44 -28l165 -269l165 269c13 22 28 28 44 28c22 0 40 -14 40 -36c0 -11 -4 -21 -14 -37l-191 -311v-293c0 -29 -17 -47 -44 -47s-44 18 -44 47zM103 818c0 30 24 54 54 54s54 -24 54 -54
s-24 -54 -54 -54s-54 24 -54 54zM289 818c0 30 24 54 54 54s54 -24 54 -54s-24 -54 -54 -54s-54 24 -54 54z" />
    <glyph glyph-name="Z" unicode="Z" horiz-adv-x="556" 
d="M41 87l366 549h-323c-25 0 -43 13 -43 38s18 38 43 38h389c29 0 46 -15 46 -31c0 -19 -4 -30 -22 -56l-367 -549h359c25 0 43 -13 43 -38s-18 -38 -43 -38h-413c-37 0 -52 15 -52 40c0 15 3 26 17 47z" />
    <glyph glyph-name="Zcaron" unicode="&#x17d;" horiz-adv-x="556" 
d="M41 87l366 549h-323c-25 0 -43 13 -43 38s18 38 43 38h389c29 0 46 -15 46 -31c0 -19 -4 -30 -22 -56l-367 -549h359c25 0 43 -13 43 -38s-18 -38 -43 -38h-413c-37 0 -52 15 -52 40c0 15 3 26 17 47zM278 767l-129 55c-16 7 -23 19 -23 35c0 21 14 38 36 38
c5 0 13 -1 22 -5l94 -37l94 37c9 4 17 5 22 5c22 0 36 -17 36 -38c0 -16 -7 -28 -23 -35z" />
    <glyph glyph-name="a" unicode="a" horiz-adv-x="556" 
d="M498 495v-458c0 -31 -24 -43 -41 -43c-18 0 -41 12 -41 43v37h-2c-38 -54 -88 -80 -145 -80c-150 0 -234 131 -234 272s84 272 234 272c61 0 104 -26 145 -71h2v28c0 31 23 43 41 43c17 0 41 -12 41 -43zM123 266c0 -90 38 -196 146 -196s146 106 146 196
s-38 196 -146 196s-146 -106 -146 -196z" />
    <glyph glyph-name="aacute" unicode="&#xe1;" horiz-adv-x="556" 
d="M498 495v-458c0 -31 -24 -43 -41 -43c-18 0 -41 12 -41 43v37h-2c-38 -54 -88 -80 -145 -80c-150 0 -234 131 -234 272s84 272 234 272c61 0 104 -26 145 -71h2v28c0 31 23 43 41 43c17 0 41 -12 41 -43zM123 266c0 -90 38 -196 146 -196s146 106 146 196
s-38 196 -146 196s-146 -106 -146 -196zM354 663l-115 -47c-17 -7 -25 -9 -34 -9c-26 0 -38 27 -38 42c0 12 7 26 35 37l115 47c17 7 25 9 34 9c26 0 38 -27 38 -42c0 -12 -7 -26 -35 -37z" />
    <glyph glyph-name="acircumflex" unicode="&#xe2;" horiz-adv-x="556" 
d="M498 495v-458c0 -31 -24 -43 -41 -43c-18 0 -41 12 -41 43v37h-2c-38 -54 -88 -80 -145 -80c-150 0 -234 131 -234 272s84 272 234 272c61 0 104 -26 145 -71h2v28c0 31 23 43 41 43c17 0 41 -12 41 -43zM123 266c0 -90 38 -196 146 -196s146 106 146 196
s-38 196 -146 196s-146 -106 -146 -196zM149 680l129 55l129 -55c16 -7 23 -19 23 -35c0 -21 -14 -38 -36 -38c-5 0 -13 1 -22 5l-94 37l-94 -37c-9 -4 -17 -5 -22 -5c-22 0 -36 17 -36 38c0 16 7 28 23 35z" />
    <glyph glyph-name="acute" unicode="&#xb4;" 
d="M178 663l-115 -47c-17 -7 -25 -9 -34 -9c-26 0 -38 27 -38 42c0 12 7 26 35 37l115 47c17 7 25 9 34 9c26 0 38 -27 38 -42c0 -12 -7 -26 -35 -37z" />
    <glyph glyph-name="adieresis" unicode="&#xe4;" horiz-adv-x="556" 
d="M498 495v-458c0 -31 -24 -43 -41 -43c-18 0 -41 12 -41 43v37h-2c-38 -54 -88 -80 -145 -80c-150 0 -234 131 -234 272s84 272 234 272c61 0 104 -26 145 -71h2v28c0 31 23 43 41 43c17 0 41 -12 41 -43zM123 266c0 -90 38 -196 146 -196s146 106 146 196
s-38 196 -146 196s-146 -106 -146 -196zM131 658c0 30 24 54 54 54s54 -24 54 -54s-24 -54 -54 -54s-54 24 -54 54zM317 658c0 30 24 54 54 54s54 -24 54 -54s-24 -54 -54 -54s-54 24 -54 54z" />
    <glyph glyph-name="ae" unicode="&#xe6;" horiz-adv-x="889" 
d="M123 266c0 -90 38 -196 146 -196s146 106 146 196s-38 196 -146 196s-146 -106 -146 -196zM415 37v37h-2c-37 -54 -87 -80 -144 -80c-150 0 -234 131 -234 272s84 272 234 272c61 0 104 -26 144 -71h2v28c0 31 23 43 41 43c17 0 41 -12 41 -43v-22h2c10 14 68 65 140 65
c114 0 224 -102 224 -259c0 -31 -11 -47 -49 -47h-325c3 -80 58 -162 161 -160c108 2 134 68 170 70c16 0 32 -14 32 -39c2 -43 -102 -109 -196 -109c-65 0 -123 21 -157 64h-2v-21c0 -31 -24 -43 -41 -43c-18 0 -41 12 -41 43zM495 298h280c0 76 -44 164 -141 164
c-101 0 -139 -88 -139 -164z" />
    <glyph glyph-name="agrave" unicode="&#xe0;" horiz-adv-x="556" 
d="M498 495v-458c0 -31 -24 -43 -41 -43c-18 0 -41 12 -41 43v37h-2c-38 -54 -88 -80 -145 -80c-150 0 -234 131 -234 272s84 272 234 272c61 0 104 -26 145 -71h2v28c0 31 23 43 41 43c17 0 41 -12 41 -43zM123 266c0 -90 38 -196 146 -196s146 106 146 196
s-38 196 -146 196s-146 -106 -146 -196zM317 616l-115 47c-28 11 -35 25 -35 37c0 15 12 42 38 42c9 0 17 -2 34 -9l115 -47c28 -11 35 -25 35 -37c0 -15 -12 -42 -38 -42c-9 0 -17 2 -34 9z" />
    <glyph glyph-name="ampersand" unicode="&#x26;" horiz-adv-x="667" 
d="M318 417l159 -188l6 8c46 62 69 124 99 124c20 0 37 -10 37 -30c0 -27 -21 -74 -93 -160l87 -103c12 -14 18 -23 18 -38c0 -21 -16 -36 -36 -36c-15 0 -25 5 -34 16l-86 99c-66 -83 -144 -115 -220 -115c-116 0 -219 76 -219 207c0 121 60 173 159 233
c-40 41 -79 91 -79 139c0 105 78 145 174 145c84 0 156 -53 156 -126c0 -91 -64 -139 -128 -175zM204 575c0 -30 31 -64 66 -103c40 23 94 60 94 105c0 48 -41 71 -81 71c-43 0 -79 -24 -79 -73zM124 211c0 -74 45 -135 139 -135c61 0 107 24 163 91l-182 210
c-93 -53 -120 -101 -120 -166z" />
    <glyph glyph-name="aring" unicode="&#xe5;" horiz-adv-x="556" 
d="M498 495v-458c0 -31 -24 -43 -41 -43c-18 0 -41 12 -41 43v37h-2c-38 -54 -88 -80 -145 -80c-150 0 -234 131 -234 272s84 272 234 272c61 0 104 -26 145 -71h2v28c0 31 23 43 41 43c17 0 41 -12 41 -43zM123 266c0 -90 38 -196 146 -196s146 106 146 196
s-38 196 -146 196s-146 -106 -146 -196zM184 678c0 52 42 94 94 94s94 -42 94 -94s-42 -94 -94 -94s-94 42 -94 94zM232 678c0 -25 21 -46 46 -46s46 21 46 46s-21 46 -46 46s-46 -21 -46 -46z" />
    <glyph glyph-name="asciicircum" unicode="^" horiz-adv-x="600" 
d="M300 630l-157 -291c-19 -34 -27 -50 -50 -50c-21 0 -37 14 -37 33c0 14 10 30 17 43l175 312c13 23 26 41 52 41s39 -18 52 -41l175 -312c7 -13 17 -29 17 -43c0 -19 -16 -33 -37 -33c-23 0 -31 16 -50 50z" />
    <glyph glyph-name="asciitilde" unicode="~" horiz-adv-x="600" 
d="M64 210c0 57 68 115 130 115c46 0 83 -17 118 -34c34 -17 66 -34 91 -34c43 0 49 69 98 68c20 -1 35 -15 35 -29c0 -57 -68 -115 -130 -115c-46 0 -83 17 -118 34c-34 17 -66 34 -91 34c-43 0 -49 -69 -98 -68c-20 1 -35 15 -35 29z" />
    <glyph glyph-name="asterisk" unicode="*" horiz-adv-x="390" 
d="M150 541l-89 37c-21 9 -23 19 -23 32c0 18 15 34 35 34c25 0 58 -37 97 -65c0 36 -11 77 -11 104c0 19 13 35 36 35s36 -16 36 -35c0 -27 -11 -68 -11 -104c39 28 72 65 97 65c20 0 35 -16 35 -34c0 -13 -2 -23 -23 -32l-89 -37l89 -37c21 -9 23 -19 23 -32
c0 -18 -15 -34 -35 -34c-25 0 -58 37 -97 65c0 -36 11 -77 11 -104c0 -19 -13 -35 -36 -35s-36 16 -36 35c0 27 11 68 11 104c-39 -28 -72 -65 -97 -65c-20 0 -35 16 -35 34c0 13 2 23 23 32z" />
    <glyph glyph-name="at" unicode="@" horiz-adv-x="800" 
d="M266 404c0 53 37 90 82 90c99 0 136 -136 136 -192c0 -49 -25 -72 -75 -72c-96 0 -143 99 -143 174zM598 218l-62 214c-4 14 -8 28 -8 41c0 17 8 29 28 29c64 0 132 -95 132 -198c0 -155 -131 -244 -274 -244c-173 0 -302 131 -302 296c0 174 134 296 311 296
c169 0 209 -110 265 -110c14 0 25 9 25 23c0 55 -165 153 -297 153c-211 0 -380 -158 -380 -362c0 -203 171 -362 378 -362c189 0 350 121 350 298c0 194 -159 278 -248 278c-40 0 -63 -18 -70 -57h-2c-27 30 -71 57 -115 57c-86 0 -151 -71 -151 -157
c0 -127 91 -259 226 -259c49 0 91 21 117 75l13 -40c7 -22 19 -29 40 -29c16 0 32 6 32 22c0 7 -2 15 -8 36z" />
    <glyph glyph-name="atilde" unicode="&#xe3;" horiz-adv-x="556" 
d="M498 495v-458c0 -31 -24 -43 -41 -43c-18 0 -41 12 -41 43v37h-2c-38 -54 -88 -80 -145 -80c-150 0 -234 131 -234 272s84 272 234 272c61 0 104 -26 145 -71h2v28c0 31 23 43 41 43c17 0 41 -12 41 -43zM123 266c0 -90 38 -196 146 -196s146 106 146 196
s-38 196 -146 196s-146 -106 -146 -196zM129 655c0 31 37 63 93 63c46 0 71 -20 110 -20c28 0 39 20 62 20c15 0 33 -18 33 -39c0 -31 -37 -63 -93 -63c-46 0 -71 20 -110 20c-28 0 -39 -20 -62 -20c-15 0 -33 18 -33 39z" />
    <glyph glyph-name="b" unicode="b" horiz-adv-x="556" 
d="M141 266c0 -90 38 -196 146 -196s146 106 146 196s-38 196 -146 196s-146 -106 -146 -196zM62 41v684c0 29 17 47 44 47s44 -18 44 -47v-259h2c23 33 72 72 142 72c144 0 227 -131 227 -272s-83 -272 -227 -272c-70 0 -117 25 -142 73h-2v-26c0 -29 -17 -47 -44 -47
s-44 18 -44 47z" />
    <glyph glyph-name="backslash" unicode="\" horiz-adv-x="407" 
d="M307 24l-273 613c-10 22 -14 36 -14 44c0 23 16 37 39 37s34 -14 41 -30l273 -613c10 -22 14 -36 14 -44c0 -23 -16 -37 -39 -37s-34 14 -41 30z" />
    <glyph glyph-name="bar" unicode="|" horiz-adv-x="222" 
d="M70 37v692c0 25 13 43 41 43s41 -18 41 -43v-692c0 -25 -13 -43 -41 -43s-41 18 -41 43z" />
    <glyph glyph-name="braceleft" unicode="{" horiz-adv-x="241" 
d="M76 26v122c0 70 0 118 -47 132c-30 9 -44 16 -44 38s14 30 44 38c47 12 47 62 47 132v122c0 69 33 108 102 108h38c28 0 40 -10 40 -30s-12 -30 -40 -30h-14c-26 0 -44 -18 -44 -48v-158c0 -109 -56 -129 -91 -133v-2c35 -4 91 -24 91 -133v-158c0 -30 18 -48 44 -48h14
c28 0 40 -10 40 -30s-12 -30 -40 -30h-38c-69 0 -102 39 -102 108z" />
    <glyph glyph-name="braceright" unicode="}" horiz-adv-x="241" 
d="M165 610v-122c0 -70 0 -118 47 -132c30 -9 44 -16 44 -38s-14 -30 -44 -38c-47 -12 -47 -62 -47 -132v-122c0 -69 -33 -108 -102 -108h-38c-28 0 -40 10 -40 30s12 30 40 30h14c26 0 44 18 44 48v158c0 109 56 129 91 133v2c-35 4 -91 24 -91 133v158c0 30 -18 48 -44 48
h-14c-28 0 -40 10 -40 30s12 30 40 30h38c69 0 102 -39 102 -108z" />
    <glyph glyph-name="bracketleft" unicode="[" horiz-adv-x="241" 
d="M158 642v-648h34c21 0 38 -17 38 -38s-17 -38 -38 -38h-69c-33 0 -47 21 -47 48v704c0 27 14 48 47 48h69c21 0 38 -17 38 -38s-17 -38 -38 -38h-34z" />
    <glyph glyph-name="bracketright" unicode="]" horiz-adv-x="241" 
d="M83 642v-648h-34c-21 0 -38 -17 -38 -38s17 -38 38 -38h69c33 0 47 21 47 48v704c0 27 -14 48 -47 48h-69c-21 0 -38 -17 -38 -38s17 -38 38 -38h34z" />
    <glyph glyph-name="breve" unicode="&#x2d8;" 
d="M-33 697c0 20 12 36 31 36c31 0 48 -57 104 -57s73 57 104 57c19 0 31 -16 31 -36c0 -59 -80 -97 -135 -97s-135 38 -135 97z" />
    <glyph glyph-name="brokenbar" unicode="&#xa6;" horiz-adv-x="222" 
d="M70 37v204c0 25 13 43 41 43s41 -18 41 -43v-204c0 -25 -13 -43 -41 -43s-41 18 -41 43zM70 525v204c0 25 13 43 41 43s41 -18 41 -43v-204c0 -25 -13 -43 -41 -43s-41 18 -41 43z" />
    <glyph glyph-name="bullet" unicode="&#x2022;" horiz-adv-x="500" 
d="M72 356c0 98 80 178 178 178s178 -80 178 -178s-80 -178 -178 -178s-178 80 -178 178z" />
    <glyph glyph-name="c" unicode="c" horiz-adv-x="444" 
d="M35 266c0 141 78 272 240 272c90 0 143 -31 143 -67c0 -18 -15 -37 -36 -37c-34 0 -47 28 -107 28c-109 0 -152 -106 -152 -196s43 -196 152 -196c62 0 78 30 106 30c20 0 34 -13 34 -37c0 -33 -49 -69 -140 -69c-162 0 -240 131 -240 272z" />
    <glyph glyph-name="caron" unicode="&#x2c7;" 
d="M102 607l-129 55c-16 7 -23 19 -23 35c0 21 14 38 36 38c5 0 13 -1 22 -5l94 -37l94 37c9 4 17 5 22 5c22 0 36 -17 36 -38c0 -16 -7 -28 -23 -35z" />
    <glyph glyph-name="ccedilla" unicode="&#xe7;" horiz-adv-x="444" 
d="M35 266c0 141 78 272 240 272c90 0 143 -31 143 -67c0 -18 -15 -37 -36 -37c-34 0 -47 28 -107 28c-109 0 -152 -106 -152 -196s43 -196 152 -196c62 0 78 30 106 30c20 0 34 -13 34 -37c0 -33 -49 -69 -140 -69c-162 0 -240 131 -240 272zM288 0l-29 -42c5 1 11 3 21 3
c44 0 69 -32 69 -55c0 -61 -47 -86 -111 -86c-42 0 -73 14 -73 35c0 13 7 27 21 27c13 0 34 -8 52 -8c24 0 35 7 35 27c0 18 -15 18 -44 18c-25 0 -30 14 -30 19c0 7 4 16 10 25l26 37h53z" />
    <glyph glyph-name="cedilla" unicode="&#xb8;" 
d="M183 0l-29 -42c5 1 11 3 21 3c44 0 69 -32 69 -55c0 -61 -47 -86 -111 -86c-42 0 -73 14 -73 35c0 13 7 27 21 27c13 0 34 -8 52 -8c24 0 35 7 35 27c0 18 -15 18 -44 18c-25 0 -30 14 -30 19c0 7 4 16 10 25l26 37h53z" />
    <glyph glyph-name="cent" unicode="&#xa2;" horiz-adv-x="444" 
d="M227 -60v59c-130 23 -192 141 -192 267s62 245 192 268v58c0 12 8 21 21 21s21 -9 21 -21v-54c96 0 149 -31 149 -67c0 -18 -15 -37 -36 -37c-34 0 -47 28 -113 28v-392c68 0 84 30 112 30c20 0 34 -13 34 -37c0 -33 -49 -69 -146 -69v-54c0 -12 -8 -21 -21 -21
s-21 9 -21 21zM227 79v375c-74 -27 -104 -113 -104 -188s30 -161 104 -187z" />
    <glyph glyph-name="circumflex" unicode="&#x2c6;" 
d="M-27 680l129 55l129 -55c16 -7 23 -19 23 -35c0 -21 -14 -38 -36 -38c-5 0 -13 1 -22 5l-94 37l-94 -37c-9 -4 -17 -5 -22 -5c-22 0 -36 17 -36 38c0 16 7 28 23 35z" />
    <glyph glyph-name="colon" unicode=":" horiz-adv-x="250" 
d="M74 45c0 28 23 51 51 51s51 -23 51 -51s-23 -51 -51 -51s-51 23 -51 51zM74 381c0 28 23 51 51 51s51 -23 51 -51s-23 -51 -51 -51s-51 23 -51 51z" />
    <glyph glyph-name="comma" unicode="," horiz-adv-x="250" 
d="M33 -51l56 110c10 19 21 37 47 37c21 0 40 -16 40 -38c0 -11 -3 -21 -11 -37l-56 -110c-10 -19 -21 -37 -47 -37c-21 0 -40 16 -40 38c0 11 3 21 11 37z" />
    <glyph glyph-name="copyright" unicode="&#xa9;" horiz-adv-x="800" 
d="M272 358c0 -82 50 -155 130 -155c107 0 101 92 147 92c13 0 32 -6 32 -28c0 -33 -58 -130 -179 -130c-127 0 -212 97 -212 221c0 126 81 221 212 221c125 0 179 -91 179 -127c0 -17 -13 -28 -33 -28c-54 0 -39 89 -146 89c-85 0 -130 -66 -130 -155zM400 -6
c-200 0 -362 162 -362 362s162 362 362 362s362 -162 362 -362s-162 -362 -362 -362zM400 70c152 0 280 128 280 286s-128 286 -280 286s-280 -128 -280 -286s128 -286 280 -286z" />
    <glyph glyph-name="currency" unicode="&#xa4;" horiz-adv-x="536" 
d="M35 172l34 35c-33 37 -49 92 -49 149s16 112 49 149l-34 35c-10 10 -14 20 -14 28c0 21 21 36 34 36c6 0 14 -4 21 -11l42 -43c38 36 93 54 150 54s112 -18 150 -54l42 43c7 7 15 11 21 11c13 0 34 -15 34 -36c0 -8 -4 -18 -14 -28l-34 -35c33 -37 49 -92 49 -149
s-16 -112 -49 -149l34 -35c10 -10 14 -20 14 -28c0 -21 -21 -36 -34 -36c-6 0 -14 4 -21 11l-42 43c-38 -36 -93 -54 -150 -54s-112 18 -150 54l-42 -43c-7 -7 -15 -11 -21 -11c-13 0 -34 15 -34 36c0 8 4 18 14 28zM102 356c0 -102 77 -172 166 -172s166 70 166 172
s-77 172 -166 172s-166 -70 -166 -172z" />
    <glyph glyph-name="d" unicode="d" horiz-adv-x="556" 
d="M415 500c0 -90 -38 -196 -146 -196s-146 106 -146 196s38 196 146 196s146 -106 146 -196zM406 725v-26h-2c-25 48 -72 73 -142 73c-144 0 -227 -131 -227 -272s83 -272 227 -272c70 0 119 39 142 72h2v-259c0 -29 17 -47 44 -47s44 18 44 47v684c0 29 -17 47 -44 47
s-44 -18 -44 -47z" />
    <glyph glyph-name="dagger" unicode="&#x2020;" horiz-adv-x="612" 
d="M265 470v205c0 25 13 43 41 43s41 -18 41 -43v-205h195c25 0 43 -13 43 -41s-18 -41 -43 -41h-195v-561c0 -25 -13 -43 -41 -43s-41 18 -41 43v561h-195c-25 0 -43 13 -43 41s18 41 43 41h195z" />
    <glyph glyph-name="daggerdbl" unicode="&#x2021;" horiz-adv-x="612" 
d="M265 94v314h-195c-25 0 -43 13 -43 41s18 41 43 41h195v185c0 25 13 43 41 43s41 -18 41 -43v-185h195c25 0 43 -13 43 -41s-18 -41 -43 -41h-195v-314h195c25 0 43 -13 43 -41s-18 -41 -43 -41h-195v-185c0 -25 -13 -43 -41 -43s-41 18 -41 43v185h-195
c-25 0 -43 13 -43 41s18 41 43 41h195z" />
    <glyph glyph-name="degree" unicode="&#xb0;" horiz-adv-x="400" 
d="M57 575c0 79 64 143 143 143s143 -64 143 -143s-64 -143 -143 -143s-143 64 -143 143zM111 575c0 -49 40 -89 89 -89s89 40 89 89s-40 89 -89 89s-89 -40 -89 -89z" />
    <glyph glyph-name="dieresis" unicode="&#xa8;" 
d="M-45 658c0 30 24 54 54 54s54 -24 54 -54s-24 -54 -54 -54s-54 24 -54 54zM141 658c0 30 24 54 54 54s54 -24 54 -54s-24 -54 -54 -54s-54 24 -54 54z" />
    <glyph glyph-name="divide" unicode="&#xf7;" horiz-adv-x="600" 
d="M510 212h-420c-25 0 -43 13 -43 41s18 41 43 41h420c25 0 43 -13 43 -41s-18 -41 -43 -41zM228 460c0 40 32 72 72 72s72 -32 72 -72s-32 -72 -72 -72s-72 32 -72 72zM228 46c0 40 32 72 72 72s72 -32 72 -72s-32 -72 -72 -72s-72 32 -72 72z" />
    <glyph glyph-name="dollar" unicode="$" horiz-adv-x="481" 
d="M218 439v203c-56 -7 -96 -46 -96 -101s41 -81 96 -102zM218 70v277c-91 31 -190 63 -190 188c0 79 70 172 190 183v47c0 12 8 21 21 21s21 -9 21 -21v-47c80 -6 153 -41 153 -83c0 -21 -16 -39 -38 -39c-35 0 -49 36 -115 46v-219c93 -33 200 -69 200 -204
c0 -107 -71 -205 -200 -221v-51c0 -12 -8 -21 -21 -21s-21 9 -21 21v47c-102 0 -197 46 -197 89c0 21 12 42 35 42c37 0 73 -55 162 -55zM260 332v-257c67 14 106 69 106 140c0 66 -48 95 -106 117z" />
    <glyph glyph-name="dotaccent" unicode="&#x2d9;" 
d="M48 658c0 30 24 54 54 54s54 -24 54 -54s-24 -54 -54 -54s-54 24 -54 54z" />
    <glyph glyph-name="dotlessi" unicode="&#x131;" 
d="M146 491v-450c0 -29 -17 -47 -44 -47s-44 18 -44 47v450c0 29 17 47 44 47s44 -18 44 -47z" />
    <glyph glyph-name="e" unicode="e" horiz-adv-x="520" 
d="M445 300h-331c0 91 58 162 157 162c117 0 147 -72 180 -72c16 0 32 14 32 39c0 43 -109 109 -213 109c-170 0 -244 -131 -244 -272c0 -144 90 -272 239 -272c145 0 229 131 229 259c0 31 -11 47 -49 47zM114 234h292c0 -76 -44 -164 -141 -164c-109 -4 -148 83 -151 164z
" />
    <glyph glyph-name="eacute" unicode="&#xe9;" horiz-adv-x="520" 
d="M445 232h-331c0 -91 58 -162 157 -162c117 0 147 72 180 72c16 0 32 -14 32 -39c0 -43 -109 -109 -213 -109c-170 0 -244 131 -244 272c0 144 90 272 239 272c145 0 229 -131 229 -259c0 -31 -11 -47 -49 -47zM114 298h292c0 76 -44 164 -141 164
c-109 4 -148 -83 -151 -164zM336 663l-115 -47c-17 -7 -25 -9 -34 -9c-26 0 -38 27 -38 42c0 12 7 26 35 37l115 47c17 7 25 9 34 9c26 0 38 -27 38 -42c0 -12 -7 -26 -35 -37z" />
    <glyph glyph-name="ecircumflex" unicode="&#xea;" horiz-adv-x="520" 
d="M445 232h-331c0 -91 58 -162 157 -162c117 0 147 72 180 72c16 0 32 -14 32 -39c0 -43 -109 -109 -213 -109c-170 0 -244 131 -244 272c0 144 90 272 239 272c145 0 229 -131 229 -259c0 -31 -11 -47 -49 -47zM114 298h292c0 76 -44 164 -141 164
c-109 4 -148 -83 -151 -164zM131 680l129 55l129 -55c16 -7 23 -19 23 -35c0 -21 -14 -38 -36 -38c-5 0 -13 1 -22 5l-94 37l-94 -37c-9 -4 -17 -5 -22 -5c-22 0 -36 17 -36 38c0 16 7 28 23 35z" />
    <glyph glyph-name="edieresis" unicode="&#xeb;" horiz-adv-x="520" 
d="M445 232h-331c0 -91 58 -162 157 -162c117 0 147 72 180 72c16 0 32 -14 32 -39c0 -43 -109 -109 -213 -109c-170 0 -244 131 -244 272c0 144 90 272 239 272c145 0 229 -131 229 -259c0 -31 -11 -47 -49 -47zM114 298h292c0 76 -44 164 -141 164
c-109 4 -148 -83 -151 -164zM113 658c0 30 24 54 54 54s54 -24 54 -54s-24 -54 -54 -54s-54 24 -54 54zM299 658c0 30 24 54 54 54s54 -24 54 -54s-24 -54 -54 -54s-54 24 -54 54z" />
    <glyph glyph-name="egrave" unicode="&#xe8;" horiz-adv-x="520" 
d="M445 232h-331c0 -91 58 -162 157 -162c117 0 147 72 180 72c16 0 32 -14 32 -39c0 -43 -109 -109 -213 -109c-170 0 -244 131 -244 272c0 144 90 272 239 272c145 0 229 -131 229 -259c0 -31 -11 -47 -49 -47zM114 298h292c0 76 -44 164 -141 164
c-109 4 -148 -83 -151 -164zM299 616l-115 47c-28 11 -35 25 -35 37c0 15 12 42 38 42c9 0 17 -2 34 -9l115 -47c28 -11 35 -25 35 -37c0 -15 -12 -42 -38 -42c-9 0 -17 2 -34 9z" />
    <glyph glyph-name="eight" unicode="8" horiz-adv-x="536" 
d="M86 555c0 109 92 163 182 163s182 -54 182 -163c0 -76 -29 -118 -93 -158c83 -19 129 -95 129 -178c0 -116 -79 -225 -218 -225s-218 109 -218 225c0 83 46 159 129 178c-64 40 -93 82 -93 158zM168 538c0 -61 37 -105 100 -105s100 44 100 105c0 60 -37 104 -100 104
s-100 -44 -100 -104zM144 215c0 -92 58 -145 124 -145s124 53 124 145c0 73 -42 142 -124 142s-124 -69 -124 -142z" />
    <glyph glyph-name="ellipsis" unicode="&#x2026;" horiz-adv-x="1000" 
d="M116 45c0 28 23 51 51 51s51 -23 51 -51s-23 -51 -51 -51s-51 23 -51 51zM449 45c0 28 23 51 51 51s51 -23 51 -51s-23 -51 -51 -51s-51 23 -51 51zM782 45c0 28 23 51 51 51s51 -23 51 -51s-23 -51 -51 -51s-51 23 -51 51z" />
    <glyph glyph-name="emdash" unicode="&#x2014;" horiz-adv-x="1000" 
d="M0 306h1000c21 0 38 -17 38 -38s-17 -38 -38 -38h-1000c-21 0 -38 17 -38 38s17 38 38 38z" />
    <glyph glyph-name="endash" unicode="&#x2013;" horiz-adv-x="500" 
d="M462 230h-424c-21 0 -38 17 -38 38s17 38 38 38h424c21 0 38 -17 38 -38s-17 -38 -38 -38z" />
    <glyph glyph-name="equal" unicode="=" horiz-adv-x="600" 
d="M510 190h-420c-25 0 -43 -13 -43 -41s18 -41 43 -41h420c25 0 43 13 43 41s-18 41 -43 41zM510 398h-420c-25 0 -43 -13 -43 -41s18 -41 43 -41h420c25 0 43 13 43 41s-18 41 -43 41z" />
    <glyph glyph-name="eth" unicode="&#xf0;" horiz-adv-x="538" 
d="M35 262c0 136 82 270 228 270c47 0 98 -23 126 -60l2 2c-24 65 -74 122 -121 161l-87 -42c-14 -7 -22 -9 -29 -9c-12 0 -24 11 -24 27c0 8 4 17 17 23l77 37c-44 35 -94 32 -94 70c0 18 15 31 37 31c32 0 92 -29 135 -61l92 46c12 6 21 9 29 9c11 0 24 -6 24 -24
c0 -16 -7 -22 -21 -29l-78 -38c117 -105 155 -231 155 -376c0 -177 -76 -305 -240 -305c-146 0 -228 134 -228 268zM123 262c0 -90 44 -192 146 -192s146 102 146 192s-44 192 -146 192s-146 -102 -146 -192z" />
    <glyph glyph-name="exclam" unicode="!" horiz-adv-x="296" 
d="M104 238v433c0 29 17 47 44 47s44 -18 44 -47v-433c0 -29 -17 -47 -44 -47s-44 18 -44 47zM97 45c0 28 23 51 51 51s51 -23 51 -51s-23 -51 -51 -51s-51 23 -51 51z" />
    <glyph glyph-name="exclamdown" unicode="&#xa1;" horiz-adv-x="296" 
d="M192 294v-433c0 -29 -17 -47 -44 -47s-44 18 -44 47v433c0 29 17 47 44 47s44 -18 44 -47zM199 487c0 -28 -23 -51 -51 -51s-51 23 -51 51s23 51 51 51s51 -23 51 -51z" />
    <glyph glyph-name="f" unicode="f" horiz-adv-x="259" 
d="M174 456v-415c0 -29 -17 -47 -44 -47s-44 18 -44 47v415h-36c-29 0 -44 14 -44 38s15 38 44 38h36v125c0 77 53 115 117 115h27c23 0 50 -14 50 -38s-15 -38 -48 -38h-22c-27 0 -36 -13 -36 -35v-129h55c29 0 44 -14 44 -38s-15 -38 -44 -38h-55z" />
    <glyph glyph-name="fi" unicode="&#xfb01;" horiz-adv-x="463" 
d="M405 491v-450c0 -29 -17 -47 -44 -47s-44 18 -44 47v450c0 29 17 47 44 47s44 -18 44 -47zM307 664c0 30 24 54 54 54s54 -24 54 -54s-24 -54 -54 -54s-54 24 -54 54zM174 456v-415c0 -29 -17 -47 -44 -47s-44 18 -44 47v415h-36c-29 0 -44 14 -44 38s15 38 44 38h36v125
c0 77 53 115 117 115h27c23 0 50 -14 50 -38s-15 -38 -48 -38h-22c-27 0 -36 -13 -36 -35v-129h55c29 0 44 -14 44 -38s-15 -38 -44 -38h-55z" />
    <glyph glyph-name="five" unicode="5" horiz-adv-x="536" 
d="M228 70l-29 193c29 -15 61 -20 94 -20c111 0 182 105 182 216c0 153 -87 253 -231 253c-118 0 -200 -75 -200 -118c0 -18 10 -38 32 -38c36 0 68 74 169 74c85 0 136 -71 136 -154c0 -84 -37 -151 -123 -151c-65 0 -96 27 -121 27c-21 0 -30 -13 -30 -27
c0 -11 4 -37 7 -59l37 -249c3 -18 12 -23 33 -23h247c21 0 38 17 38 38s-17 38 -38 38h-203z" />
    <glyph glyph-name="fl" unicode="&#xfb02;" horiz-adv-x="463" 
d="M174 456v-415c0 -29 -17 -47 -44 -47s-44 18 -44 47v415h-36c-29 0 -44 14 -44 38s15 38 44 38h36v125c0 77 53 115 117 115h27c23 0 50 -14 50 -38s-15 -38 -48 -38h-22c-27 0 -36 -13 -36 -35v-129h55c29 0 44 -14 44 -38s-15 -38 -44 -38h-55zM405 725v-684
c0 -29 -17 -47 -44 -47s-44 18 -44 47v684c0 29 17 47 44 47s44 -18 44 -47z" />
    <glyph glyph-name="florin" unicode="&#x192;" horiz-adv-x="536" 
d="M147 432h63l22 124c20 113 61 162 156 162c47 0 66 -17 66 -38c0 -24 -19 -32 -57 -32c-46 0 -68 -33 -81 -105l-20 -111h62c21 0 38 -17 38 -38s-17 -38 -38 -38h-75l-72 -396c-22 -119 -49 -176 -165 -176c-47 0 -65 18 -65 40c0 24 15 37 45 37h41c35 0 49 40 64 124
l66 371h-50c-21 0 -38 17 -38 38s17 38 38 38z" />
    <glyph glyph-name="four" unicode="4" horiz-adv-x="536" 
d="M334 183h-284c-30 0 -38 13 -38 31c0 13 9 30 22 51l252 413c18 30 38 40 69 40c39 0 67 -21 67 -73v-386h45c21 0 38 -17 38 -38s-17 -38 -38 -38h-45v-142c0 -29 -17 -47 -44 -47s-44 18 -44 47v142zM122 259h212v365h-2z" />
    <glyph glyph-name="fraction" unicode="&#x2044;" horiz-adv-x="168" 
d="M-77 58l266 638c9 21 19 30 35 30c24 0 35 -15 35 -27c0 -8 -2 -17 -14 -45l-266 -638c-9 -21 -19 -30 -37 -30c-22 0 -33 14 -33 27c0 8 3 18 14 45z" />
    <glyph glyph-name="g" unicode="g" horiz-adv-x="556" 
d="M494 495v-457c0 -158 -96 -254 -240 -254c-91 0 -204 52 -204 97c0 18 9 41 37 41c40 0 79 -62 174 -62c112 0 145 88 145 164v46h-2c-27 -46 -75 -76 -135 -76c-150 0 -234 131 -234 272s84 272 234 272c57 0 112 -35 135 -67h2v24c0 31 23 43 47 43c17 0 41 -12 41 -43
zM123 266c0 -90 38 -196 146 -196s146 106 146 196s-38 196 -146 196s-146 -106 -146 -196z" />
    <glyph glyph-name="germandbls" unicode="&#xdf;" horiz-adv-x="556" 
d="M58 37v526c0 131 78 209 192 209c122 0 199 -96 199 -182c0 -75 -23 -131 -77 -168c85 -22 134 -106 134 -198c0 -106 -72 -230 -198 -230c-42 0 -58 17 -58 41c0 18 8 38 33 38c101 0 129 64 129 155c0 94 -54 142 -121 146c-33 2 -45 14 -45 37c0 28 12 34 45 44
c32 10 70 27 70 125c0 64 -41 116 -109 116c-52 0 -106 -30 -106 -150v-509c0 -31 -23 -43 -44 -43s-44 12 -44 43z" />
    <glyph glyph-name="grave" unicode="`" 
d="M141 616l-115 47c-28 11 -35 25 -35 37c0 15 12 42 38 42c9 0 17 -2 34 -9l115 -47c28 -11 35 -25 35 -37c0 -15 -12 -42 -38 -42c-9 0 -17 2 -34 9z" />
    <glyph glyph-name="greater" unicode="&#x3e;" horiz-adv-x="600" 
d="M78 437l372 -184l-372 -184c-15 -8 -32 -17 -32 -38s16 -37 33 -37c12 0 28 8 49 18l390 195c26 13 36 26 36 46s-10 33 -36 46l-390 195c-21 10 -37 18 -49 18c-17 0 -33 -16 -33 -37s17 -30 32 -38z" />
    <glyph glyph-name="guillemotleft" unicode="&#xab;" horiz-adv-x="407" 
d="M196 268l99 178c9 16 19 26 34 26c19 0 40 -11 40 -35c0 -8 -4 -19 -11 -31l-83 -138l83 -138c7 -12 11 -23 11 -31c0 -24 -21 -35 -40 -35c-15 0 -25 10 -34 26zM38 268l99 178c9 16 19 26 34 26c19 0 40 -11 40 -35c0 -8 -4 -19 -11 -31l-83 -138l83 -138
c7 -12 11 -23 11 -31c0 -24 -21 -35 -40 -35c-15 0 -25 10 -34 26z" />
    <glyph glyph-name="guillemotright" unicode="&#xbb;" horiz-adv-x="407" 
d="M49 130l83 138l-83 138c-7 12 -11 23 -11 31c0 24 21 35 40 35c15 0 25 -10 34 -26l99 -178l-99 -178c-9 -16 -19 -26 -34 -26c-19 0 -40 11 -40 35c0 8 4 19 11 31zM207 130l83 138l-83 138c-7 12 -11 23 -11 31c0 24 21 35 40 35c15 0 25 -10 34 -26l99 -178l-99 -178
c-9 -16 -19 -26 -34 -26c-19 0 -40 11 -40 35c0 8 4 19 11 31z" />
    <glyph glyph-name="guilsinglleft" unicode="&#x2039;" horiz-adv-x="259" 
d="M43 268l99 178c9 16 19 26 34 26c19 0 40 -11 40 -35c0 -8 -4 -19 -11 -31l-83 -138l83 -138c7 -12 11 -23 11 -31c0 -24 -21 -35 -40 -35c-15 0 -25 10 -34 26z" />
    <glyph glyph-name="guilsinglright" unicode="&#x203a;" horiz-adv-x="259" 
d="M54 130l83 138l-83 138c-7 12 -11 23 -11 31c0 24 21 35 40 35c15 0 25 -10 34 -26l99 -178l-99 -178c-9 -16 -19 -26 -34 -26c-19 0 -40 11 -40 35c0 8 4 19 11 31z" />
    <glyph glyph-name="h" unicode="h" horiz-adv-x="538" 
d="M392 41v290c0 93 -65 131 -123 131s-123 -38 -123 -131v-290c0 -29 -17 -47 -44 -47s-44 18 -44 47v684c0 29 17 47 44 47s44 -18 44 -47v-255l2 -2c39 50 94 70 147 70c82 0 185 -52 185 -202v-295c0 -29 -17 -47 -44 -47s-44 18 -44 47z" />
    <glyph glyph-name="hungarumlaut" unicode="&#x2dd;" 
d="M68 663l-115 -47c-17 -7 -25 -9 -34 -9c-26 0 -38 27 -38 42c0 12 7 26 35 37l115 47c17 7 25 9 34 9c26 0 38 -27 38 -42c0 -12 -7 -26 -35 -37zM288 663l-115 -47c-17 -7 -25 -9 -34 -9c-26 0 -38 27 -38 42c0 12 7 26 35 37l115 47c17 7 25 9 34 9c26 0 38 -27 38 -42
c0 -12 -7 -26 -35 -37z" />
    <glyph glyph-name="hyphen" unicode="-" horiz-adv-x="352" 
d="M279 230h-206c-21 0 -38 17 -38 38s17 38 38 38h206c21 0 38 -17 38 -38s-17 -38 -38 -38z" />
    <glyph glyph-name="i" unicode="i" 
d="M146 491v-450c0 -29 -17 -47 -44 -47s-44 18 -44 47v450c0 29 17 47 44 47s44 -18 44 -47zM48 664c0 30 24 54 54 54s54 -24 54 -54s-24 -54 -54 -54s-54 24 -54 54z" />
    <glyph glyph-name="iacute" unicode="&#xed;" 
d="M146 491v-450c0 -29 -17 -47 -44 -47s-44 18 -44 47v450c0 29 17 47 44 47s44 -18 44 -47zM178 663l-115 -47c-17 -7 -25 -9 -34 -9c-26 0 -38 27 -38 42c0 12 7 26 35 37l115 47c17 7 25 9 34 9c26 0 38 -27 38 -42c0 -12 -7 -26 -35 -37z" />
    <glyph glyph-name="icircumflex" unicode="&#xee;" 
d="M146 491v-450c0 -29 -17 -47 -44 -47s-44 18 -44 47v450c0 29 17 47 44 47s44 -18 44 -47zM-27 680l129 55l129 -55c16 -7 23 -19 23 -35c0 -21 -14 -38 -36 -38c-5 0 -13 1 -22 5l-94 37l-94 -37c-9 -4 -17 -5 -22 -5c-22 0 -36 17 -36 38c0 16 7 28 23 35z" />
    <glyph glyph-name="idieresis" unicode="&#xef;" 
d="M146 491v-450c0 -29 -17 -47 -44 -47s-44 18 -44 47v450c0 29 17 47 44 47s44 -18 44 -47zM-45 658c0 30 24 54 54 54s54 -24 54 -54s-24 -54 -54 -54s-54 24 -54 54zM141 658c0 30 24 54 54 54s54 -24 54 -54s-24 -54 -54 -54s-54 24 -54 54z" />
    <glyph glyph-name="igrave" unicode="&#xec;" 
d="M146 491v-450c0 -29 -17 -47 -44 -47s-44 18 -44 47v450c0 29 17 47 44 47s44 -18 44 -47zM141 616l-115 47c-28 11 -35 25 -35 37c0 15 12 42 38 42c9 0 17 -2 34 -9l115 -47c28 -11 35 -25 35 -37c0 -15 -12 -42 -38 -42c-9 0 -17 2 -34 9z" />
    <glyph glyph-name="j" unicode="j" 
d="M146 491v-660c0 -29 -17 -47 -44 -47s-44 18 -44 47v660c0 29 17 47 44 47s44 -18 44 -47zM48 664c0 30 24 54 54 54s54 -24 54 -54s-24 -54 -54 -54s-54 24 -54 54z" />
    <glyph glyph-name="k" unicode="k" horiz-adv-x="463" 
d="M58 41v684c0 29 17 47 44 47s44 -18 44 -47v-375l192 161c18 16 35 27 50 27c23 0 37 -17 37 -39c0 -13 -5 -25 -22 -38l-200 -158l232 -229c17 -17 21 -28 21 -45c0 -20 -18 -35 -37 -35c-21 0 -30 6 -51 27l-222 232v-212c0 -29 -17 -47 -44 -47s-44 18 -44 47z" />
    <glyph glyph-name="l" unicode="l" 
d="M146 41v684c0 29 -17 47 -44 47s-44 -18 -44 -47v-684c0 -29 17 -47 44 -47s44 18 44 47z" />
    <glyph glyph-name="less" unicode="&#x3c;" horiz-adv-x="600" 
d="M150 253l372 -184c15 -8 32 -17 32 -38s-16 -37 -33 -37c-12 0 -28 8 -49 18l-390 195c-26 13 -36 26 -36 46s10 33 36 46l390 195c21 10 37 18 49 18c17 0 33 -16 33 -37s-17 -30 -32 -38z" />
    <glyph glyph-name="logicalnot" unicode="&#xac;" horiz-adv-x="600" 
d="M471 316h-381c-25 0 -43 13 -43 41s18 41 43 41h422c28 0 41 -18 41 -43v-204c0 -25 -13 -43 -41 -43s-41 18 -41 43v165z" />
    <glyph glyph-name="lslash" unicode="&#x142;" 
d="M58 41v243l-21 -21c-9 -9 -19 -16 -33 -16c-23 0 -39 18 -39 38c0 13 6 23 17 34l76 76v330c0 29 17 47 44 47s44 -18 44 -47v-242l21 21c12 12 20 16 33 16c23 0 39 -18 39 -38c0 -14 -7 -24 -17 -34l-76 -76v-331c0 -29 -17 -47 -44 -47s-44 18 -44 47z" />
    <glyph glyph-name="m" unicode="m" horiz-adv-x="834" 
d="M373 41v298c0 76 -42 123 -114 123c-71 0 -113 -47 -113 -123v-298c0 -29 -17 -47 -44 -47s-44 18 -44 47v450c0 29 17 47 44 47s44 -18 44 -47v-16l2 -2c21 27 54 65 134 65c52 0 106 -22 146 -90c39 56 86 90 163 90c82 0 185 -52 185 -202v-295c0 -29 -17 -47 -44 -47
s-44 18 -44 47v298c0 76 -42 123 -114 123c-71 0 -113 -47 -113 -123v-298c0 -29 -17 -47 -44 -47s-44 18 -44 47z" />
    <glyph glyph-name="macron" unicode="&#xaf;" 
d="M1 689h202c25 0 43 -13 43 -41s-18 -41 -43 -41h-202c-25 0 -43 13 -43 41s18 41 43 41z" />
    <glyph glyph-name="minus" unicode="&#x2212;" horiz-adv-x="600" 
d="M510 212h-420c-25 0 -43 13 -43 41s18 41 43 41h420c25 0 43 -13 43 -41s-18 -41 -43 -41z" />
    <glyph glyph-name="mu" unicode="&#x3bc;" horiz-adv-x="538" 
d="M58 -169v660c0 29 17 47 44 47s44 -18 44 -47v-282c0 -99 32 -139 123 -139s123 40 123 139v282c0 29 17 47 44 47s44 -18 44 -47v-450c0 -29 -17 -47 -44 -47c-21 0 -36 11 -41 29c-35 -21 -78 -29 -126 -29c-51 0 -91 11 -123 46v-209c0 -29 -17 -47 -44 -47
s-44 18 -44 47z" />
    <glyph glyph-name="multiply" unicode="&#xd7;" horiz-adv-x="600" 
d="M300 309l152 151c17 17 28 23 42 23c21 0 36 -19 36 -37c0 -13 -3 -22 -21 -40l-153 -153l153 -153c18 -18 21 -27 21 -40c0 -18 -15 -37 -36 -37c-14 0 -25 6 -42 23l-152 152l-152 -152c-17 -17 -28 -23 -42 -23c-21 0 -36 19 -36 37c0 13 3 22 21 40l153 153l-153 153
c-18 18 -21 27 -21 40c0 18 15 37 36 37c14 0 25 -6 42 -23z" />
    <glyph glyph-name="n" unicode="n" horiz-adv-x="538" 
d="M58 41v450c0 29 17 47 44 47s44 -18 44 -47v-21l2 -2c39 50 94 70 147 70c82 0 185 -52 185 -202v-295c0 -29 -17 -47 -44 -47s-44 18 -44 47v290c0 93 -65 131 -123 131s-123 -38 -123 -131v-290c0 -29 -17 -47 -44 -47s-44 18 -44 47z" />
    <glyph glyph-name="nine" unicode="9" horiz-adv-x="536" 
d="M270 718c124 0 214 -103 214 -245c0 -208 -140 -368 -248 -459c-18 -15 -29 -20 -41 -20c-14 0 -36 14 -36 41c0 14 10 25 35 47c57 51 99 99 153 198h-2c-33 -17 -65 -28 -113 -28c-116 0 -180 110 -180 234c0 129 92 232 218 232zM396 482c0 83 -38 154 -125 154
s-125 -71 -125 -154c0 -94 38 -154 125 -154s125 72 125 154z" />
    <glyph glyph-name="ntilde" unicode="&#xf1;" horiz-adv-x="538" 
d="M58 41v450c0 29 17 47 44 47s44 -18 44 -47v-21l2 -2c39 50 94 70 147 70c82 0 185 -52 185 -202v-295c0 -29 -17 -47 -44 -47s-44 18 -44 47v290c0 93 -65 131 -123 131s-123 -38 -123 -131v-290c0 -29 -17 -47 -44 -47s-44 18 -44 47zM120 655c0 31 37 63 93 63
c46 0 71 -20 110 -20c28 0 39 20 62 20c15 0 33 -18 33 -39c0 -31 -37 -63 -93 -63c-46 0 -71 20 -110 20c-28 0 -39 -20 -62 -20c-15 0 -33 18 -33 39z" />
    <glyph glyph-name="numbersign" unicode="#" horiz-adv-x="536" 
d="M381 216l-26 -186c-3 -23 -12 -36 -38 -36c-24 0 -34 16 -34 34c0 11 2 23 5 42l20 146h-119l-26 -186c-3 -23 -12 -36 -38 -36c-24 0 -34 16 -34 34c0 11 2 23 5 42l20 146h-61c-23 0 -41 11 -41 33c0 23 18 33 41 33h70l21 148h-61c-23 0 -41 11 -41 33s18 33 41 33h70
l26 186c3 23 12 36 38 36c24 0 34 -16 34 -34c0 -11 -2 -23 -5 -42l-20 -146h119l26 186c3 23 12 36 38 36c24 0 34 -16 34 -34c0 -11 -2 -23 -5 -42l-20 -146h61c23 0 41 -11 41 -33c0 -23 -18 -33 -41 -33h-70l-21 -148h61c23 0 41 -11 41 -33s-18 -33 -41 -33h-70z
M317 282l21 148h-119l-21 -148h119z" />
    <glyph glyph-name="o" unicode="o" horiz-adv-x="538" 
d="M35 266c0 141 84 272 234 272s234 -131 234 -272s-84 -272 -234 -272s-234 131 -234 272zM123 266c0 -90 38 -196 146 -196s146 106 146 196s-38 196 -146 196s-146 -106 -146 -196z" />
    <glyph glyph-name="oacute" unicode="&#xf3;" horiz-adv-x="538" 
d="M35 266c0 141 84 272 234 272s234 -131 234 -272s-84 -272 -234 -272s-234 131 -234 272zM123 266c0 -90 38 -196 146 -196s146 106 146 196s-38 196 -146 196s-146 -106 -146 -196zM345 663l-115 -47c-17 -7 -25 -9 -34 -9c-26 0 -38 27 -38 42c0 12 7 26 35 37l115 47
c17 7 25 9 34 9c26 0 38 -27 38 -42c0 -12 -7 -26 -35 -37z" />
    <glyph glyph-name="ocircumflex" unicode="&#xf4;" horiz-adv-x="538" 
d="M35 266c0 141 84 272 234 272s234 -131 234 -272s-84 -272 -234 -272s-234 131 -234 272zM123 266c0 -90 38 -196 146 -196s146 106 146 196s-38 196 -146 196s-146 -106 -146 -196zM140 680l129 55l129 -55c16 -7 23 -19 23 -35c0 -21 -14 -38 -36 -38c-5 0 -13 1 -22 5
l-94 37l-94 -37c-9 -4 -17 -5 -22 -5c-22 0 -36 17 -36 38c0 16 7 28 23 35z" />
    <glyph glyph-name="odieresis" unicode="&#xf6;" horiz-adv-x="538" 
d="M35 266c0 141 84 272 234 272s234 -131 234 -272s-84 -272 -234 -272s-234 131 -234 272zM123 266c0 -90 38 -196 146 -196s146 106 146 196s-38 196 -146 196s-146 -106 -146 -196zM122 658c0 30 24 54 54 54s54 -24 54 -54s-24 -54 -54 -54s-54 24 -54 54zM308 658
c0 30 24 54 54 54s54 -24 54 -54s-24 -54 -54 -54s-54 24 -54 54z" />
    <glyph glyph-name="oe" unicode="&#x153;" horiz-adv-x="907" 
d="M501 298h292c0 76 -44 164 -146 164s-146 -88 -146 -164zM35 266c0 141 84 272 231 272c82 0 150 -42 193 -104c36 62 104 104 188 104c150 0 234 -131 234 -259c0 -31 -11 -47 -49 -47h-331c0 -91 58 -162 165 -160c110 2 136 68 172 70c16 0 32 -14 32 -39
c2 -43 -106 -109 -208 -109c-99 0 -167 42 -203 104c-43 -60 -111 -104 -193 -104c-147 0 -231 131 -231 272zM268 462c-107 0 -145 -106 -145 -196s38 -196 145 -196s145 106 145 196s-38 196 -145 196z" />
    <glyph glyph-name="ogonek" unicode="&#x2db;" 
d="M146 2h53l-26 -24c-27 -25 -37 -48 -37 -68c0 -16 8 -34 37 -34c22 0 36 8 47 8c18 0 24 -12 24 -23c0 -31 -48 -39 -85 -39c-52 0 -99 25 -99 73c0 35 27 64 55 84z" />
    <glyph glyph-name="ograve" unicode="&#xf2;" horiz-adv-x="538" 
d="M35 266c0 141 84 272 234 272s234 -131 234 -272s-84 -272 -234 -272s-234 131 -234 272zM123 266c0 -90 38 -196 146 -196s146 106 146 196s-38 196 -146 196s-146 -106 -146 -196zM308 616l-115 47c-28 11 -35 25 -35 37c0 15 12 42 38 42c9 0 17 -2 34 -9l115 -47
c28 -11 35 -25 35 -37c0 -15 -12 -42 -38 -42c-9 0 -17 2 -34 9z" />
    <glyph glyph-name="one" unicode="1" horiz-adv-x="352" 
d="M164 41v595h-92c-21 0 -38 17 -38 38s17 38 38 38h153c17 0 27 -2 27 -24v-647c0 -29 -17 -47 -44 -47s-44 18 -44 47z" />
    <glyph glyph-name="onehalf" unicode="&#xbd;" horiz-adv-x="805" 
d="M172 58l266 638c9 21 19 30 35 30c24 0 35 -15 35 -27c0 -8 -2 -17 -14 -45l-266 -638c-9 -21 -19 -30 -37 -30c-22 0 -33 14 -33 27c0 8 3 18 14 45zM115 652h-51c-17 0 -28 10 -28 30s11 30 28 30h104c9 0 19 -2 19 -14v-377c0 -25 -16 -36 -36 -36
c-19 0 -36 11 -36 36v331zM553 60h148c23 0 38 -10 38 -30c0 -21 -15 -30 -38 -30h-218c-23 0 -30 13 -30 21c0 5 3 12 12 23l171 217c15 19 26 39 26 56c0 30 -25 50 -64 50c-51 0 -84 -46 -84 -82c0 -18 -16 -24 -29 -24c-21 0 -31 10 -31 33c0 69 52 133 148 133
c89 0 132 -51 132 -108c0 -33 -12 -55 -36 -84z" />
    <glyph glyph-name="onequarter" unicode="&#xbc;" horiz-adv-x="805" 
d="M202 58l266 638c9 21 19 30 35 30c24 0 35 -15 35 -27c0 -8 -2 -17 -14 -45l-266 -638c-9 -21 -19 -30 -37 -30c-22 0 -33 14 -33 27c0 8 3 18 14 45zM115 652h-51c-17 0 -28 10 -28 30s11 30 28 30h104c9 0 19 -2 19 -14v-377c0 -25 -16 -36 -36 -36
c-19 0 -36 11 -36 36v331zM646 97h-178c-16 0 -23 12 -23 24c0 10 7 24 14 35l159 239c12 19 30 32 50 32c29 0 50 -13 50 -44v-226h24c16 0 27 -13 27 -30s-11 -30 -27 -30h-24v-72c0 -20 -14 -31 -36 -31s-36 11 -36 31v72zM528 157h118v198h-2z" />
    <glyph glyph-name="onesuperior" unicode="&#xb9;" horiz-adv-x="229" 
d="M87 652h-51c-17 0 -28 10 -28 30s11 30 28 30h104c9 0 19 -2 19 -14v-377c0 -25 -16 -36 -36 -36c-19 0 -36 11 -36 36v331z" />
    <glyph glyph-name="ordfeminine" unicode="&#xaa;" horiz-adv-x="361" 
d="M332 692v-275c0 -18 -16 -26 -33 -26s-33 8 -33 26v16h-2c-19 -26 -43 -42 -83 -42c-93 0 -152 72 -152 164c0 91 59 163 152 163c40 0 64 -16 83 -42h2v16c0 18 16 26 33 26s33 -8 33 -26zM184 451c51 0 83 49 83 104c0 54 -32 103 -83 103s-83 -49 -83 -103
c0 -55 32 -104 83 -104z" />
    <glyph glyph-name="ordmasculine" unicode="&#xba;" horiz-adv-x="350" 
d="M23 555c0 91 59 163 152 163s152 -72 152 -163c0 -93 -59 -164 -152 -164s-152 72 -152 164zM95 555c0 -55 32 -104 80 -104s80 49 80 104c0 54 -32 103 -80 103s-80 -49 -80 -103z" />
    <glyph glyph-name="oslash" unicode="&#xf8;" horiz-adv-x="538" 
d="M41 39l45 54c-34 46 -51 109 -51 173c0 141 84 272 234 272c58 0 107 -20 143 -51l41 50c8 10 18 19 31 19c17 0 31 -12 31 -28c0 -13 -5 -20 -14 -31l-48 -57c33 -50 50 -111 50 -174c0 -141 -84 -272 -234 -272c-57 0 -105 19 -142 52l-42 -51c-9 -12 -19 -19 -32 -19
c-17 0 -30 14 -30 28c0 11 5 20 18 35zM143 162l218 263c-22 23 -53 37 -92 37c-108 0 -146 -106 -146 -196c0 -35 6 -72 20 -104zM395 370l-218 -263c22 -23 53 -37 92 -37c108 0 146 106 146 196c0 34 -5 71 -20 104z" />
    <glyph glyph-name="otilde" unicode="&#xf5;" horiz-adv-x="538" 
d="M35 266c0 141 84 272 234 272s234 -131 234 -272s-84 -272 -234 -272s-234 131 -234 272zM123 266c0 -90 38 -196 146 -196s146 106 146 196s-38 196 -146 196s-146 -106 -146 -196zM120 655c0 31 37 63 93 63c46 0 71 -20 110 -20c28 0 39 20 62 20c15 0 33 -18 33 -39
c0 -31 -37 -63 -93 -63c-46 0 -71 20 -110 20c-28 0 -39 -20 -62 -20c-15 0 -33 18 -33 39z" />
    <glyph glyph-name="p" unicode="p" horiz-adv-x="556" 
d="M141 266c0 -90 38 -196 146 -196s146 106 146 196s-38 196 -146 196s-146 -106 -146 -196zM62 -169v660c0 29 17 47 44 47s44 -18 44 -47v-26h2c25 48 72 73 142 73c144 0 227 -131 227 -272s-83 -272 -227 -272c-70 0 -119 39 -142 72h-2v-235c0 -29 -17 -47 -44 -47
s-44 18 -44 47z" />
    <glyph glyph-name="paragraph" unicode="&#xb6;" horiz-adv-x="600" 
d="M242 -173v517c-129 0 -214 77 -214 185c0 107 85 183 255 183h191c33 0 47 -21 47 -48v-837c0 -25 -13 -43 -41 -43s-41 18 -41 43v819h-115v-819c0 -25 -13 -43 -41 -43s-41 18 -41 43z" />
    <glyph glyph-name="parenleft" unicode="(" horiz-adv-x="241" 
d="M65 318c0 136 21 275 58 373c9 24 21 45 44 45c24 0 35 -14 35 -29s-7 -31 -14 -53c-26 -82 -41 -187 -41 -336s15 -254 41 -336c7 -22 14 -38 14 -53s-11 -29 -35 -29c-23 0 -35 21 -44 45c-37 98 -58 237 -58 373z" />
    <glyph glyph-name="parenright" unicode=")" horiz-adv-x="241" 
d="M176 318c0 -136 -21 -275 -58 -373c-9 -24 -21 -45 -44 -45c-24 0 -35 14 -35 29s7 31 14 53c26 82 41 187 41 336s-15 254 -41 336c-7 22 -14 38 -14 53s11 29 35 29c23 0 35 -21 44 -45c37 -98 58 -237 58 -373z" />
    <glyph glyph-name="percent" unicode="%" horiz-adv-x="741" 
d="M194 434c64 0 86 62 86 115s-22 115 -86 115s-86 -62 -86 -115s22 -115 86 -115zM547 -6c-100 0 -152 80 -152 169s52 169 152 169s152 -80 152 -169s-52 -169 -152 -169zM547 48c64 0 86 62 86 115s-22 115 -86 115s-86 -62 -86 -115s22 -115 86 -115zM194 380
c-100 0 -152 80 -152 169s52 169 152 169s152 -80 152 -169s-52 -169 -152 -169zM209 58l266 638c9 21 19 30 35 30c24 0 35 -15 35 -27c0 -8 -3 -17 -14 -45l-266 -638c-9 -21 -19 -30 -37 -30c-22 0 -33 14 -33 27c0 8 3 18 14 45z" />
    <glyph glyph-name="period" unicode="." horiz-adv-x="250" 
d="M74 45c0 28 23 51 51 51s51 -23 51 -51s-23 -51 -51 -51s-51 23 -51 51z" />
    <glyph glyph-name="periodcentered" unicode="&#xb7;" horiz-adv-x="250" 
d="M71 303c0 30 24 54 54 54s54 -24 54 -54s-24 -54 -54 -54s-54 24 -54 54z" />
    <glyph glyph-name="perthousand" unicode="&#x2030;" horiz-adv-x="1093" 
d="M211 58l266 638c9 21 19 30 35 30c24 0 35 -15 35 -27c0 -8 -3 -17 -14 -45l-266 -638c-9 -21 -19 -30 -37 -30c-22 0 -33 14 -33 27c0 8 3 18 14 45zM545 -6c-100 0 -152 80 -152 169s52 169 152 169s152 -80 152 -169s-52 -169 -152 -169zM545 48c64 0 86 62 86 115
s-22 115 -86 115s-86 -62 -86 -115s22 -115 86 -115zM198 380c-100 0 -152 80 -152 169s52 169 152 169s152 -80 152 -169s-52 -169 -152 -169zM198 434c64 0 86 62 86 115s-22 115 -86 115s-86 -62 -86 -115s22 -115 86 -115zM895 -6c-100 0 -152 80 -152 169
s52 169 152 169s152 -80 152 -169s-52 -169 -152 -169zM895 48c64 0 86 62 86 115s-22 115 -86 115s-86 -62 -86 -115s22 -115 86 -115z" />
    <glyph glyph-name="plus" unicode="+" horiz-adv-x="600" 
d="M259 294v169c0 25 13 43 41 43s41 -18 41 -43v-169h169c25 0 43 -13 43 -41s-18 -41 -43 -41h-169v-169c0 -25 -13 -43 -41 -43s-41 18 -41 43v169h-169c-25 0 -43 13 -43 41s18 41 43 41h169z" />
    <glyph glyph-name="plusminus" unicode="&#xb1;" horiz-adv-x="600" 
d="M259 353v110c0 25 13 43 41 43s41 -18 41 -43v-110h169c25 0 43 -13 43 -41s-18 -41 -43 -41h-169v-110c0 -25 -13 -43 -41 -43s-41 18 -41 43v110h-169c-25 0 -43 13 -43 41s18 41 43 41h169zM510 0h-420c-25 0 -43 13 -43 41s18 41 43 41h420c25 0 43 -13 43 -41
s-18 -41 -43 -41z" />
    <glyph glyph-name="q" unicode="q" horiz-adv-x="556" 
d="M415 266c0 90 -38 196 -146 196s-146 -106 -146 -196s38 -196 146 -196s146 106 146 196zM35 266c0 141 83 272 227 272c70 0 117 -25 142 -73h2v26c0 29 17 47 44 47s44 -18 44 -47v-660c0 -29 -17 -47 -44 -47s-44 18 -44 47v235h-2c-23 -33 -72 -72 -142 -72
c-144 0 -227 131 -227 272z" />
    <glyph glyph-name="question" unicode="?" horiz-adv-x="444" 
d="M258 338v-100c0 -29 -17 -47 -44 -47s-44 18 -44 47v113c0 45 1 53 70 67c79 16 92 71 92 108c0 68 -49 110 -116 110c-53 0 -94 -19 -116 -82c-9 -26 -21 -33 -39 -33c-23 0 -44 18 -43 46c4 88 102 151 195 151c121 0 213 -78 213 -184c0 -108 -68 -175 -168 -196z
M163 45c0 28 23 51 51 51s51 -23 51 -51s-23 -51 -51 -51s-51 23 -51 51z" />
    <glyph glyph-name="questiondown" unicode="&#xbf;" horiz-adv-x="444" 
d="M186 194v100c0 29 17 47 44 47s44 -18 44 -47v-113c0 -45 -1 -53 -70 -67c-79 -16 -92 -71 -92 -108c0 -68 49 -110 116 -110c53 0 94 19 116 82c9 26 21 33 39 33c23 0 44 -18 43 -46c-4 -88 -102 -151 -195 -151c-121 0 -213 78 -213 184c0 108 68 175 168 196z
M281 487c0 -28 -23 -51 -51 -51s-51 23 -51 51s23 51 51 51s51 -23 51 -51z" />
    <glyph glyph-name="quotedbl" unicode="&#x22;" horiz-adv-x="334" 
d="M197 539v136c0 25 13 43 41 43s41 -18 41 -43v-136c0 -25 -13 -43 -41 -43s-41 18 -41 43zM55 539v136c0 25 13 43 41 43s41 -18 41 -43v-136c0 -25 -13 -43 -41 -43s-41 18 -41 43z" />
    <glyph glyph-name="quotedblbase" unicode="&#x201e;" horiz-adv-x="334" 
d="M172 -51l56 110c10 19 21 37 47 37c21 0 40 -16 40 -38c0 -11 -3 -21 -11 -37l-56 -110c-10 -19 -21 -37 -47 -37c-21 0 -40 16 -40 38c0 11 3 21 11 37zM30 -51l56 110c10 19 21 37 47 37c21 0 40 -16 40 -38c0 -11 -3 -21 -11 -37l-56 -110c-10 -19 -21 -37 -47 -37
c-21 0 -40 16 -40 38c0 11 3 21 11 37z" />
    <glyph glyph-name="quotedblleft" unicode="&#x201c;" horiz-adv-x="334" 
d="M172 571l56 110c10 19 21 37 47 37c21 0 40 -16 40 -38c0 -11 -3 -21 -11 -37l-56 -110c-10 -19 -21 -37 -47 -37c-21 0 -40 16 -40 38c0 11 3 21 11 37zM30 571l56 110c10 19 21 37 47 37c21 0 40 -16 40 -38c0 -11 -3 -21 -11 -37l-56 -110c-10 -19 -21 -37 -47 -37
c-21 0 -40 16 -40 38c0 11 3 21 11 37z" />
    <glyph glyph-name="quotedblright" unicode="&#x201d;" horiz-adv-x="334" 
d="M172 571l56 110c10 19 21 37 47 37c21 0 40 -16 40 -38c0 -11 -3 -21 -11 -37l-56 -110c-10 -19 -21 -37 -47 -37c-21 0 -40 16 -40 38c0 11 3 21 11 37zM30 571l56 110c10 19 21 37 47 37c21 0 40 -16 40 -38c0 -11 -3 -21 -11 -37l-56 -110c-10 -19 -21 -37 -47 -37
c-21 0 -40 16 -40 38c0 11 3 21 11 37z" />
    <glyph glyph-name="quoteleft" unicode="&#x2018;" 
d="M36 571l56 110c10 19 21 37 47 37c21 0 40 -16 40 -38c0 -11 -3 -21 -11 -37l-56 -110c-10 -19 -21 -37 -47 -37c-21 0 -40 16 -40 38c0 11 3 21 11 37z" />
    <glyph glyph-name="quoteright" unicode="&#x2019;" 
d="M36 571l56 110c10 19 21 37 47 37c21 0 40 -16 40 -38c0 -11 -3 -21 -11 -37l-56 -110c-10 -19 -21 -37 -47 -37c-21 0 -40 16 -40 38c0 11 3 21 11 37z" />
    <glyph glyph-name="quotesinglbase" unicode="&#x201a;" 
d="M36 -51l56 110c10 19 21 37 47 37c21 0 40 -16 40 -38c0 -11 -3 -21 -11 -37l-56 -110c-10 -19 -21 -37 -47 -37c-21 0 -40 16 -40 38c0 11 3 21 11 37z" />
    <glyph glyph-name="quotesingle" unicode="'" 
d="M61 539v136c0 25 13 43 41 43s41 -18 41 -43v-136c0 -25 -13 -43 -41 -43s-41 18 -41 43z" />
    <glyph glyph-name="r" unicode="r" horiz-adv-x="315" 
d="M58 491v-450c0 -29 17 -47 44 -47s44 18 44 47v45h2c20 -41 69 -92 120 -92c31 0 49 20 49 45s-18 41 -55 48c-52 9 -116 48 -116 151v253c0 29 -17 47 -44 47s-44 -18 -44 -47z" />
    <glyph glyph-name="registered" unicode="&#xae;" horiz-adv-x="800" 
d="M381 321h-64v-143c0 -20 -11 -32 -33 -32s-33 12 -33 32v359c0 15 7 21 23 21h132c100 0 151 -29 151 -119c0 -78 -46 -108 -103 -115l89 -136c4 -6 10 -18 10 -25c0 -11 -20 -17 -37 -17c-20 0 -30 6 -40 22zM317 381h76c51 0 98 4 98 63c0 50 -49 54 -92 54h-82v-117z
M400 -6c-200 0 -362 162 -362 362s162 362 362 362s362 -162 362 -362s-162 -362 -362 -362zM400 70c152 0 280 128 280 286s-128 286 -280 286s-280 -128 -280 -286s128 -286 280 -286z" />
    <glyph glyph-name="ring" unicode="&#x2da;" 
d="M8 678c0 52 42 94 94 94s94 -42 94 -94s-42 -94 -94 -94s-94 42 -94 94zM56 678c0 -25 21 -46 46 -46s46 21 46 46s-21 46 -46 46s-46 -21 -46 -46z" />
    <glyph glyph-name="s" unicode="s" horiz-adv-x="444" 
d="M46 388c0 98 92 150 181 150c73 0 177 -39 177 -94c0 -19 -13 -36 -40 -36c-38 0 -53 54 -137 54c-50 0 -93 -22 -93 -67c0 -93 284 -83 284 -237c0 -111 -95 -164 -194 -164c-112 0 -200 56 -200 101c0 24 17 40 36 40c39 0 71 -65 167 -65c64 0 103 36 103 72
c0 104 -284 98 -284 246z" />
    <glyph glyph-name="scaron" unicode="&#x161;" horiz-adv-x="444" 
d="M46 388c0 98 92 150 181 150c73 0 177 -39 177 -94c0 -19 -13 -36 -40 -36c-38 0 -53 54 -137 54c-50 0 -93 -22 -93 -67c0 -93 284 -83 284 -237c0 -111 -95 -164 -194 -164c-112 0 -200 56 -200 101c0 24 17 40 36 40c39 0 71 -65 167 -65c64 0 103 36 103 72
c0 104 -284 98 -284 246zM222 607l-129 55c-16 7 -23 19 -23 35c0 21 14 38 36 38c5 0 13 -1 22 -5l94 -37l94 37c9 4 17 5 22 5c22 0 36 -17 36 -38c0 -16 -7 -28 -23 -35z" />
    <glyph glyph-name="section" unicode="&#xa7;" horiz-adv-x="556" 
d="M85 554c0 104 87 164 211 164c120 0 205 -82 205 -151c0 -23 -13 -46 -40 -46c-65 0 -31 121 -171 121c-64 0 -117 -30 -117 -84c0 -129 355 -115 355 -332c0 -67 -46 -134 -109 -169c44 -30 65 -68 65 -118c0 -99 -110 -156 -210 -155c-151 2 -226 98 -226 144
c0 36 18 50 44 50c66 0 36 -118 180 -118c80 0 124 36 124 80c0 128 -368 117 -368 330c0 89 51 135 122 171c-46 34 -65 62 -65 113zM116 277c0 -52 45 -85 124 -124l114 -56c72 54 86 88 86 126c0 42 -9 77 -89 114l-125 58c-59 -25 -110 -56 -110 -118z" />
    <glyph glyph-name="semicolon" unicode=";" horiz-adv-x="250" 
d="M33 -51l56 110c10 19 21 37 47 37c21 0 40 -16 40 -38c0 -11 -3 -21 -11 -37l-56 -110c-10 -19 -21 -37 -47 -37c-21 0 -40 16 -40 38c0 11 3 21 11 37zM74 381c0 28 23 51 51 51s51 -23 51 -51s-23 -51 -51 -51s-51 23 -51 51z" />
    <glyph glyph-name="seven" unicode="7" horiz-adv-x="500" 
d="M366 636h-300c-21 0 -38 17 -38 38s17 38 38 38h361c27 0 45 -7 45 -28c0 -14 -6 -28 -17 -53l-266 -605c-12 -28 -34 -32 -53 -32c-12 0 -33 11 -33 34c0 7 3 21 14 47l249 559v2z" />
    <glyph glyph-name="six" unicode="6" horiz-adv-x="536" 
d="M266 -6c-124 0 -214 103 -214 245c0 208 140 368 248 459c18 15 29 20 41 20c14 0 36 -14 36 -41c0 -14 -10 -25 -35 -47c-57 -51 -99 -99 -153 -198h2c33 17 65 28 113 28c116 0 180 -110 180 -234c0 -129 -92 -232 -218 -232zM140 230c0 -83 38 -154 125 -154
s125 71 125 154c0 94 -38 154 -125 154s-125 -72 -125 -154z" />
    <glyph glyph-name="slash" unicode="/" horiz-adv-x="407" 
d="M34 75l273 613c7 16 18 30 41 30s39 -14 39 -37c0 -8 -4 -22 -14 -44l-273 -613c-7 -16 -18 -30 -41 -30s-39 14 -39 37c0 8 4 22 14 44z" />
    <glyph glyph-name="space" unicode=" " horiz-adv-x="250" 
 />
    <glyph glyph-name="sterling" unicode="&#xa3;" horiz-adv-x="593" 
d="M242 398h129c25 0 43 -13 43 -41s-18 -41 -43 -41h-109c3 -17 7 -36 7 -66c0 -47 -31 -119 -86 -168h337c25 0 43 -13 43 -41s-18 -41 -43 -41h-400c-28 0 -53 7 -53 42c0 43 114 90 114 209c0 18 -1 43 -7 65h-101c-25 0 -43 13 -43 41s18 41 43 41h77
c-24 43 -49 90 -49 143c0 105 103 177 216 177c119 0 229 -98 229 -177c0 -27 -17 -43 -42 -43c-67 0 -32 138 -186 138c-65 0 -129 -35 -129 -101c0 -53 30 -93 53 -137z" />
    <glyph glyph-name="t" unicode="t" horiz-adv-x="260" 
d="M86 532v115c0 29 17 47 44 47s44 -18 44 -47v-115h36c29 0 44 -14 44 -38s-15 -38 -44 -38h-36v-415c0 -29 -17 -47 -44 -47s-44 18 -44 47v415h-36c-29 0 -44 14 -44 38s15 38 44 38h36z" />
    <glyph glyph-name="thorn" unicode="&#xfe;" horiz-adv-x="556" 
d="M141 266c0 -90 38 -196 146 -196s146 106 146 196s-38 196 -146 196s-146 -106 -146 -196zM62 -169v894c0 29 17 47 44 47s44 -18 44 -47v-260h2c25 48 72 73 142 73c144 0 227 -131 227 -272s-83 -272 -227 -272c-70 0 -119 39 -142 72h-2v-235c0 -29 -17 -47 -44 -47
s-44 18 -44 47z" />
    <glyph glyph-name="three" unicode="3" horiz-adv-x="536" 
d="M476 210c0 -135 -100 -216 -227 -216c-148 0 -208 111 -208 164c0 31 16 49 37 49c26 0 39 -15 49 -46c17 -51 53 -91 120 -91c79 0 135 59 135 132c0 106 -58 133 -124 133c-35 0 -54 15 -54 38c0 20 13 31 46 38c71 16 100 50 100 115c0 68 -40 116 -101 116
c-70 0 -96 -50 -101 -104c-3 -40 -27 -41 -42 -41c-25 0 -40 18 -40 41c0 95 69 180 187 180c114 0 185 -84 185 -184c0 -59 -28 -117 -84 -151c80 -24 122 -92 122 -173z" />
    <glyph glyph-name="threequarters" unicode="&#xbe;" horiz-adv-x="805" 
d="M262 58l266 638c9 21 19 30 35 30c24 0 35 -15 35 -27c0 -8 -2 -17 -14 -45l-266 -638c-9 -21 -19 -30 -37 -30c-22 0 -33 14 -33 27c0 8 3 18 14 45zM176 718c84 0 130 -50 130 -110c0 -35 -18 -71 -55 -91c51 -15 79 -55 79 -103c0 -80 -69 -129 -155 -129
c-88 0 -133 59 -133 105c0 15 7 32 28 32c11 0 19 -3 29 -25c17 -37 40 -52 81 -52c42 0 78 33 78 76c0 45 -26 63 -67 63c-42 0 -46 12 -46 25c0 17 8 24 30 29c43 10 59 30 59 67c0 27 -23 53 -61 53c-43 0 -61 -27 -65 -49c-3 -20 -15 -23 -29 -23c-15 0 -25 11 -25 28
c0 57 43 104 122 104zM646 97h-178c-16 0 -23 12 -23 24c0 10 7 24 14 35l159 239c12 19 30 32 50 32c29 0 50 -13 50 -44v-226h24c16 0 27 -13 27 -30s-11 -30 -27 -30h-24v-72c0 -20 -14 -31 -36 -31s-36 11 -36 31v72zM528 157h118v198h-2z" />
    <glyph glyph-name="threesuperior" unicode="&#xb3;" horiz-adv-x="348" 
d="M164 718c84 0 130 -50 130 -110c0 -35 -18 -71 -55 -91c51 -15 79 -55 79 -103c0 -80 -69 -129 -155 -129c-88 0 -133 59 -133 105c0 15 7 32 28 32c11 0 19 -3 29 -25c17 -37 40 -52 81 -52c42 0 78 33 78 76c0 45 -26 63 -67 63c-42 0 -46 12 -46 25c0 17 8 24 30 29
c43 10 59 30 59 67c0 27 -23 53 -61 53c-43 0 -61 -27 -65 -49c-3 -20 -15 -23 -29 -23c-15 0 -25 11 -25 28c0 57 43 104 122 104z" />
    <glyph glyph-name="tilde" unicode="&#x2dc;" 
d="M-47 655c0 31 37 63 93 63c46 0 71 -20 110 -20c28 0 39 20 62 20c15 0 33 -18 33 -39c0 -31 -37 -63 -93 -63c-46 0 -71 20 -110 20c-28 0 -39 -20 -62 -20c-15 0 -33 18 -33 39z" />
    <glyph glyph-name="trademark" unicode="&#x2122;" horiz-adv-x="990" 
d="M185 341v305h-95c-20 0 -32 11 -32 33s12 33 32 33h272c20 0 32 -11 32 -33s-12 -33 -32 -33h-95v-305c0 -25 -13 -43 -41 -43s-41 18 -41 43zM474 336v315c0 46 22 67 63 67c26 0 54 -7 67 -39l100 -261l98 261c13 32 41 39 67 39c41 0 63 -21 63 -67v-315
c0 -21 -17 -38 -38 -38s-38 17 -38 38v288h-2l-108 -289c-10 -27 -22 -37 -43 -37s-33 10 -43 37l-108 289h-2v-288c0 -21 -17 -38 -38 -38s-38 17 -38 38z" />
    <glyph glyph-name="two" unicode="2" horiz-adv-x="536" 
d="M182 76h270c21 0 38 -17 38 -38s-17 -38 -38 -38h-345c-37 0 -48 21 -48 36c0 11 4 19 19 40l246 329c30 39 52 83 52 126c0 65 -49 111 -113 111c-85 0 -130 -72 -130 -161c0 -31 -20 -40 -39 -40c-28 0 -43 17 -43 54c0 118 80 223 227 223c118 0 192 -85 192 -177
c0 -41 -3 -87 -49 -147z" />
    <glyph glyph-name="twosuperior" unicode="&#xb2;" horiz-adv-x="348" 
d="M131 351h148c23 0 38 -10 38 -30c0 -21 -15 -30 -38 -30h-218c-23 0 -30 13 -30 21c0 5 3 12 12 23l171 217c15 19 26 39 26 56c0 30 -25 50 -64 50c-51 0 -84 -46 -84 -82c0 -18 -16 -24 -29 -24c-21 0 -31 10 -31 33c0 69 52 133 148 133c89 0 132 -51 132 -108
c0 -33 -12 -55 -36 -84z" />
    <glyph glyph-name="u" unicode="u" horiz-adv-x="538" 
d="M58 206v285c0 29 17 47 44 47s44 -18 44 -47v-282c0 -91 40 -139 123 -139s123 48 123 139v282c0 29 17 47 44 47s44 -18 44 -47v-285c0 -156 -104 -212 -211 -212s-211 56 -211 212z" />
    <glyph glyph-name="uacute" unicode="&#xfa;" horiz-adv-x="538" 
d="M58 206v285c0 29 17 47 44 47s44 -18 44 -47v-282c0 -91 40 -139 123 -139s123 48 123 139v282c0 29 17 47 44 47s44 -18 44 -47v-285c0 -156 -104 -212 -211 -212s-211 56 -211 212zM345 663l-115 -47c-17 -7 -25 -9 -34 -9c-26 0 -38 27 -38 42c0 12 7 26 35 37l115 47
c17 7 25 9 34 9c26 0 38 -27 38 -42c0 -12 -7 -26 -35 -37z" />
    <glyph glyph-name="ucircumflex" unicode="&#xfb;" horiz-adv-x="538" 
d="M58 206v285c0 29 17 47 44 47s44 -18 44 -47v-282c0 -91 40 -139 123 -139s123 48 123 139v282c0 29 17 47 44 47s44 -18 44 -47v-285c0 -156 -104 -212 -211 -212s-211 56 -211 212zM140 680l129 55l129 -55c16 -7 23 -19 23 -35c0 -21 -14 -38 -36 -38
c-5 0 -13 1 -22 5l-94 37l-94 -37c-9 -4 -17 -5 -22 -5c-22 0 -36 17 -36 38c0 16 7 28 23 35z" />
    <glyph glyph-name="udieresis" unicode="&#xfc;" horiz-adv-x="538" 
d="M58 206v285c0 29 17 47 44 47s44 -18 44 -47v-282c0 -91 40 -139 123 -139s123 48 123 139v282c0 29 17 47 44 47s44 -18 44 -47v-285c0 -156 -104 -212 -211 -212s-211 56 -211 212zM122 658c0 30 24 54 54 54s54 -24 54 -54s-24 -54 -54 -54s-54 24 -54 54zM308 658
c0 30 24 54 54 54s54 -24 54 -54s-24 -54 -54 -54s-54 24 -54 54z" />
    <glyph glyph-name="ugrave" unicode="&#xf9;" horiz-adv-x="538" 
d="M58 206v285c0 29 17 47 44 47s44 -18 44 -47v-282c0 -91 40 -139 123 -139s123 48 123 139v282c0 29 17 47 44 47s44 -18 44 -47v-285c0 -156 -104 -212 -211 -212s-211 56 -211 212zM308 616l-115 47c-28 11 -35 25 -35 37c0 15 12 42 38 42c9 0 17 -2 34 -9l115 -47
c28 -11 35 -25 35 -37c0 -15 -12 -42 -38 -42c-9 0 -17 2 -34 9z" />
    <glyph glyph-name="underscore" unicode="_" horiz-adv-x="500" 
d="M500 -125h-500c-16 0 -29 9 -29 25s13 25 29 25h500c16 0 29 -9 29 -25s-13 -25 -29 -25z" />
    <glyph glyph-name="v" unicode="v" horiz-adv-x="426" 
d="M167 32l-153 429c-6 16 -9 26 -9 36c0 26 19 41 40 41c29 0 39 -14 46 -34l121 -368h2l121 368c7 20 17 34 46 34c21 0 40 -15 40 -41c0 -10 -3 -20 -9 -36l-153 -429c-9 -26 -18 -38 -46 -38s-37 12 -46 38z" />
    <glyph glyph-name="w" unicode="w" horiz-adv-x="742" 
d="M155 40l-146 425c-4 13 -7 25 -7 34c0 17 12 39 42 39c19 0 37 -7 49 -45l113 -363h2l111 350c12 38 20 58 52 58s40 -20 52 -58l111 -350h2l113 363c12 38 30 45 49 45c30 0 42 -22 42 -39c0 -9 -3 -21 -7 -34l-146 -425c-12 -34 -26 -46 -51 -46c-24 0 -39 12 -50 46
l-114 359h-2l-114 -359c-11 -34 -26 -46 -50 -46c-25 0 -39 12 -51 46z" />
    <glyph glyph-name="x" unicode="x" horiz-adv-x="464" 
d="M24 76l157 206l-138 181c-11 14 -15 26 -15 35c0 22 16 40 37 40c20 0 29 -9 38 -20l129 -172l129 172c9 11 18 20 38 20c21 0 37 -18 37 -40c0 -9 -4 -21 -15 -35l-138 -181l157 -206c14 -19 18 -32 18 -42c0 -22 -17 -40 -40 -40c-15 0 -30 7 -39 20l-147 204
l-147 -204c-9 -13 -24 -20 -39 -20c-23 0 -40 18 -40 40c0 10 4 23 18 42z" />
    <glyph glyph-name="y" unicode="y" horiz-adv-x="444" 
d="M179 19l-150 433c-10 30 -12 39 -12 49c0 22 20 37 40 37c22 0 38 -14 44 -33l122 -365h2l120 365c6 19 20 33 42 33c20 0 40 -15 40 -37c0 -10 -2 -19 -12 -49l-222 -635c-7 -19 -21 -33 -43 -33c-20 0 -40 15 -40 37c0 10 2 19 13 49z" />
    <glyph glyph-name="yacute" unicode="&#xfd;" horiz-adv-x="444" 
d="M179 19l-150 433c-10 30 -12 39 -12 49c0 22 20 37 40 37c22 0 38 -14 44 -33l122 -365h2l120 365c6 19 20 33 42 33c20 0 40 -15 40 -37c0 -10 -2 -19 -12 -49l-222 -635c-7 -19 -21 -33 -43 -33c-20 0 -40 15 -40 37c0 10 2 19 13 49zM298 663l-115 -47
c-17 -7 -25 -9 -34 -9c-26 0 -38 27 -38 42c0 12 7 26 35 37l115 47c17 7 25 9 34 9c26 0 38 -27 38 -42c0 -12 -7 -26 -35 -37z" />
    <glyph glyph-name="ydieresis" unicode="&#xff;" horiz-adv-x="444" 
d="M179 19l-150 433c-10 30 -12 39 -12 49c0 22 20 37 40 37c22 0 38 -14 44 -33l122 -365h2l120 365c6 19 20 33 42 33c20 0 40 -15 40 -37c0 -10 -2 -19 -12 -49l-222 -635c-7 -19 -21 -33 -43 -33c-20 0 -40 15 -40 37c0 10 2 19 13 49zM75 658c0 30 24 54 54 54
s54 -24 54 -54s-24 -54 -54 -54s-54 24 -54 54zM261 658c0 30 24 54 54 54s54 -24 54 -54s-24 -54 -54 -54s-54 24 -54 54z" />
    <glyph glyph-name="yen" unicode="&#xa5;" horiz-adv-x="536" 
d="M224 261v71h-137c-23 0 -41 11 -41 33s18 33 41 33h96l-160 247c-10 15 -15 26 -15 40c0 19 19 33 35 33s32 -7 46 -28l179 -269l179 269c14 21 30 28 46 28s35 -14 35 -33c0 -14 -5 -25 -15 -40l-160 -247h96c23 0 41 -11 41 -33s-18 -33 -41 -33h-137v-71h137
c23 0 41 -11 41 -33s-18 -33 -41 -33h-137v-154c0 -29 -18 -47 -44 -47s-44 18 -44 47v154h-137c-23 0 -41 11 -41 33s18 33 41 33h137z" />
    <glyph glyph-name="z" unicode="z" horiz-adv-x="444" 
d="M141 76h239c29 0 44 -14 44 -38s-15 -38 -44 -38h-317c-34 0 -43 17 -43 31s5 26 18 45l254 380h-218c-29 0 -44 14 -44 38s15 38 44 38h296c34 0 43 -17 43 -31s-5 -26 -18 -45l-257 -378z" />
    <glyph glyph-name="zcaron" unicode="&#x17e;" horiz-adv-x="444" 
d="M141 76h239c29 0 44 -14 44 -38s-15 -38 -44 -38h-317c-34 0 -43 17 -43 31s5 26 18 45l254 380h-218c-29 0 -44 14 -44 38s15 38 44 38h296c34 0 43 -17 43 -31s-5 -26 -18 -45l-257 -378zM222 607l-129 55c-16 7 -23 19 -23 35c0 21 14 38 36 38c5 0 13 -1 22 -5
l94 -37l94 37c9 4 17 5 22 5c22 0 36 -17 36 -38c0 -16 -7 -28 -23 -35z" />
    <glyph glyph-name="zero" unicode="0" horiz-adv-x="536" 
d="M33 356c0 229 105 362 235 362s235 -133 235 -362s-105 -362 -235 -362s-235 133 -235 362zM127 356c0 -199 63 -286 141 -286s141 87 141 286s-63 286 -141 286s-141 -87 -141 -286z" />
    </font>
</defs>
</svg>
